<svg width="34" height="34" viewBox="0 0 34 34" fill="none" xmlns="http://www.w3.org/2000/svg">
<path d="M25.046 12.7285H8.98167V27.3705H25.046V12.7285Z" fill="url(#paint0_linear_542_27301)"/>
<path d="M30.0482 11.4652H17.0142H3.97942V9.72766L10.4968 7.12666L17.0142 4.52637L23.5308 7.12666L30.0482 9.72766V11.4652Z" fill="#6A665E"/>
<path d="M17.0142 4.5459L23.5039 7.13557L29.9873 9.72311L29.9944 11.4465H17.0142H4.03325L4.04033 9.72311L10.5237 7.13557L17.0142 4.5459Z" fill="#6B675F"/>
<path d="M17.0142 4.56543L23.4777 7.14518L29.9271 9.71926L29.9412 11.4285H17.0142H4.08638L4.10054 9.71926L10.5499 7.14518L17.0142 4.56543Z" fill="#6C6860"/>
<path d="M17.0142 4.58496L23.4508 7.15409L29.8669 9.714L29.8881 11.4098H17.0142H4.1395L4.16075 9.714L10.5768 7.15409L17.0142 4.58496Z" fill="#6D6961"/>
<path d="M17.0142 4.60449L23.4239 7.16299L29.806 9.70945L29.8343 11.391H17.0142H4.19334L4.22167 9.70945L10.6038 7.16299L17.0142 4.60449Z" fill="#6E6A62"/>
<path d="M17.0142 4.625L23.3977 7.17217L29.7458 9.70588L29.7812 11.374H17.0142H4.24646L4.28188 9.70588L10.63 7.17217L17.0142 4.625Z" fill="#6F6B63"/>
<path d="M17.0142 4.64453L23.3708 7.18107L29.6855 9.70132L29.728 11.3553H17.0142H4.30029L4.34208 9.70132L10.6569 7.18107L17.0142 4.64453Z" fill="#706C64"/>
<path d="M17.0142 4.66406L23.3438 7.19069L29.6246 9.69677L29.6742 11.3373H17.0142H4.35342L4.403 9.69677L10.6838 7.19069L17.0142 4.66406Z" fill="#716D65"/>
<path d="M17.0142 4.68359L23.3176 7.19959L29.5644 9.69222L29.6211 11.3186H17.0142H4.40654L4.46321 9.69222L10.71 7.19959L17.0142 4.68359Z" fill="#726E66"/>
<path d="M17.0142 4.70312L23.2907 7.20779L29.5042 9.68767L29.568 11.2998H17.0142H4.46037L4.52341 9.68767L10.7369 7.20779L17.0142 4.70312Z" fill="#736F67"/>
<path d="M17.0142 4.72363L23.2638 7.21767L29.4433 9.68409L29.5141 11.2821H17.0142H4.5135L4.58434 9.68409L10.7638 7.21767L17.0142 4.72363Z" fill="#747068"/>
<path d="M17.0142 4.74316L23.2376 7.22658L29.3831 9.67954L29.461 11.2641H17.0142H4.56662L4.64454 9.67954L10.79 7.22658L17.0142 4.74316Z" fill="#757169"/>
<path d="M17.0142 4.7627L23.2107 7.23549L29.3229 9.67428L29.4079 11.2454H17.0142H4.62046L4.70475 9.67428L10.817 7.23549L17.0142 4.7627Z" fill="#76726A"/>
<path d="M17.0142 4.78223L23.1838 7.2451L29.2627 9.67043L29.354 11.2274H17.0142H4.67358L4.76567 9.67043L10.8439 7.2451L17.0142 4.78223Z" fill="#77736B"/>
<path d="M17.0142 4.80176L23.1575 7.2533L29.2017 9.66588L29.3009 11.2086H17.0142H4.72671L4.82587 9.66588L10.8701 7.2533L17.0142 4.80176Z" fill="#78746B"/>
<path d="M17.0142 4.82129L23.1306 7.26221L29.1415 9.66133L29.2471 11.1899H17.0142H4.78054L4.88608 9.66133L10.897 7.26221L17.0142 4.82129Z" fill="#79756C"/>
<path d="M17.0142 4.8418L23.1037 7.27209L29.0813 9.65705L29.194 11.1722H17.0142H4.83366L4.947 9.65705L10.9239 7.27209L17.0142 4.8418Z" fill="#7A766D"/>
<path d="M17.0142 4.86133L23.0775 7.281L29.0204 9.65249L29.1408 11.1542H17.0142H4.88679L5.00721 9.65249L10.9501 7.281L17.0142 4.86133Z" fill="#7B776E"/>
<path d="M17.0142 4.88086L23.0506 7.29061L28.9602 9.64865L29.087 11.1362H17.0142H4.94063L5.06742 9.64865L10.977 7.29061L17.0142 4.88086Z" fill="#7C776F"/>
<path d="M17.0142 4.90039L23.0237 7.29881L28.9 9.6441L29.0339 11.1174H17.0142H4.99375L5.12763 9.6441L11.004 7.29881L17.0142 4.90039Z" fill="#7D7870"/>
<path d="M17.0142 4.91992L22.9975 7.30771L28.8391 9.63884L28.9808 11.0987H17.0142H5.04688L5.18854 9.63884L11.0302 7.30771L17.0142 4.91992Z" fill="#7E7971"/>
<path d="M17.0142 4.93945L22.9705 7.31662L28.7789 9.63429L28.9269 11.08H17.0142H5.10071L5.24875 9.63429L11.0571 7.31662L17.0142 4.93945Z" fill="#7F7A72"/>
<path d="M17.0142 4.95996L22.9436 7.3265L28.7187 9.63071L28.8738 11.0623H17.0142H5.15383L5.30896 9.63071L11.084 7.3265L17.0142 4.95996Z" fill="#807B73"/>
<path d="M17.0142 4.97949L22.9174 7.3347L28.6578 9.62616L28.8207 11.0442H17.0142H5.20696L5.36988 9.62616L11.1102 7.3347L17.0142 4.97949Z" fill="#817C74"/>
<path d="M17.0142 4.99902L22.8905 7.34432L28.5975 9.62231L28.7668 11.0262H17.0142H5.26079L5.43008 9.62231L11.1371 7.34432L17.0142 4.99902Z" fill="#827D75"/>
<path d="M17.0142 5.01855L22.8636 7.35322L28.5373 9.61705L28.7137 11.0075H17.0142H5.31392L5.49029 9.61705L11.164 7.35322L17.0142 5.01855Z" fill="#837E76"/>
<path d="M17.0142 5.03809L22.8374 7.36213L28.4764 9.6125L28.6606 10.9888H17.0142H5.36704L5.55121 9.6125L11.1903 7.36213L17.0142 5.03809Z" fill="#847F77"/>
<path d="M17.0142 5.05859L22.8105 7.37201L28.4162 9.60893L28.6068 10.9711H17.0142H5.42088L5.61142 9.60893L11.2172 7.37201L17.0142 5.05859Z" fill="#858078"/>
<path d="M17.0142 5.07812L22.7835 7.38021L28.356 9.60438L28.5536 10.9523H17.0142H5.474L5.67162 9.60438L11.2441 7.38021L17.0142 5.07812Z" fill="#868179"/>
<path d="M17.0142 5.09668L22.7573 7.38885L28.2951 9.59885L28.5005 10.9341H17.0142H5.52712L5.73254 9.59885L11.271 7.38885L17.0142 5.09668Z" fill="#87827A"/>
<path d="M17.0142 5.11719L22.7304 7.39873L28.2349 9.59527L28.4467 10.9163H17.0142H5.58096L5.79275 9.59527L11.2972 7.39873L17.0142 5.11719Z" fill="#88837B"/>
<path d="M17.0142 5.13672L22.7035 7.40764L28.1747 9.59072L28.3935 10.8976H17.0142H5.63408L5.85296 9.59072L11.3241 7.40764L17.0142 5.13672Z" fill="#89847C"/>
<path d="M17.0142 5.15625L22.6773 7.41583L28.1145 9.58617L28.3404 10.8789H17.0142H5.68792L5.91388 9.58617L11.351 7.41583L17.0142 5.15625Z" fill="#8A857D"/>
<path d="M17.0142 5.17676L22.6504 7.42572L28.0535 9.58259L28.2866 10.8611H17.0142H5.74104L5.97409 9.58259L11.3773 7.42572L17.0142 5.17676Z" fill="#8B867E"/>
<path d="M17.0142 5.19629L22.6235 7.43462L27.9933 9.57733L28.2335 10.8424H17.0142H5.79417L6.03429 9.57733L11.4042 7.43462L17.0142 5.19629Z" fill="#8C877F"/>
<path d="M17.0142 5.21582L22.5972 7.44424L27.9331 9.57349L28.1803 10.8251H17.0142H5.848L6.09521 9.57349L11.4311 7.44424L17.0142 5.21582Z" fill="#8D8880"/>
<path d="M17.0142 5.23535L22.5703 7.45314L27.8722 9.56894L28.1265 10.8064H17.0142H5.90113L6.15542 9.56894L11.4573 7.45314L17.0142 5.23535Z" fill="#8E8981"/>
<path d="M17.0142 5.25488L22.5434 7.46134L27.812 9.56438L28.0734 10.7877H17.0142H5.95425L6.21562 9.56438L11.4842 7.46134L17.0142 5.25488Z" fill="#8F8A82"/>
<path d="M17.0142 5.27539L22.5172 7.47122L27.7518 9.5601L28.0203 10.7699H17.0142H6.00809L6.27655 9.5601L11.5111 7.47122L17.0142 5.27539Z" fill="#908B83"/>
<path d="M17.0142 5.29492L22.4903 7.48013L27.6909 9.55555L27.9664 10.7512H17.0142H6.06121L6.33675 9.55555L11.5373 7.48013L17.0142 5.29492Z" fill="#918C84"/>
<path d="M17.0142 5.31348L22.4634 7.48877L27.6307 9.55073L27.9133 10.7322H17.0142H6.11433L6.39696 9.55073L11.5643 7.48877L17.0142 5.31348Z" fill="#928D84"/>
<path d="M17.0142 5.33398L22.4372 7.49865L27.5705 9.54715L27.8602 10.7152H17.0142H6.16817L6.45717 9.54715L11.5912 7.49865L17.0142 5.33398Z" fill="#938E85"/>
<path d="M17.0142 5.35352L22.4102 7.50685L27.5095 9.54189L27.8063 10.6965H17.0142H6.22129L6.51808 9.54189L11.6174 7.50685L17.0142 5.35352Z" fill="#948F86"/>
<path d="M17.0142 5.37305L22.3833 7.51576L27.4493 9.53734L27.7532 10.6778H17.0142H6.27441L6.57829 9.53734L11.6443 7.51576L17.0142 5.37305Z" fill="#959087"/>
<path d="M17.0142 5.39355L22.3571 7.52564L27.3891 9.53376L27.6994 10.66H17.0142H6.32825L6.6385 9.53376L11.6712 7.52564L17.0142 5.39355Z" fill="#969188"/>
<path d="M17.0142 5.41309L22.3302 7.53454L27.3282 9.52921L27.6462 10.6413H17.0142H6.38137L6.69942 9.52921L11.6974 7.53454L17.0142 5.41309Z" fill="#979289"/>
<path d="M17.0142 5.43262L22.3033 7.54345L27.268 9.52537L27.5931 10.6233H17.0142H6.4345L6.75963 9.52537L11.7243 7.54345L17.0142 5.43262Z" fill="#98938A"/>
<path d="M17.0142 5.45215L22.2764 7.55236L27.2078 9.52011L27.5393 10.6053H17.0142H6.48833L6.81983 9.52011L11.7513 7.55236L17.0142 5.45215Z" fill="#99948B"/>
<path d="M17.0142 5.47168L22.2502 7.56126L27.1469 9.51555L27.4862 10.5866H17.0142H6.54146L6.88075 9.51555L11.7775 7.56126L17.0142 5.47168Z" fill="#9A958C"/>
<path d="M17.0142 5.49219L22.2232 7.57115L27.0867 9.51198L27.433 10.5688H17.0142H6.59458L6.94096 9.51198L11.8044 7.57115L17.0142 5.49219Z" fill="#9B968D"/>
<path d="M17.0142 5.51172L22.1963 7.58005L27.0265 9.50743L27.3792 10.5501H17.0142H6.64841L7.00116 9.50743L11.8313 7.58005L17.0142 5.51172Z" fill="#9C978E"/>
<path d="M17.0142 5.53027L22.1701 7.58798L26.9655 9.5019L27.3261 10.5311H17.0142H6.70154L7.06208 9.5019L11.8575 7.58798L17.0142 5.53027Z" fill="#9D988F"/>
<path d="M17.0142 5.55078L22.1432 7.59786L26.9053 9.49832L27.273 10.5134H17.0142H6.75467L7.12229 9.49832L11.8844 7.59786L17.0142 5.55078Z" fill="#9D9890"/>
<path d="M17.0142 5.57031L22.1163 7.60677L26.8451 9.49377L27.2191 10.4954H17.0142H6.8085L7.1825 9.49377L11.9113 7.60677L17.0142 5.57031Z" fill="#9E9991"/>
<path d="M17.0142 5.58984L22.0901 7.61568L26.7849 9.48922L27.166 10.4766H17.0142H6.86163L7.24342 9.48922L11.9375 7.61568L17.0142 5.58984Z" fill="#9F9A92"/>
<path d="M17.0142 5.61035L22.0632 7.62556L26.724 9.48494L27.1129 10.4589H17.0142H6.91475L7.30362 9.48494L11.9645 7.62556L17.0142 5.61035Z" fill="#A09B93"/>
<path d="M17.0142 5.62988L22.0362 7.63376L26.6638 9.48038L27.059 10.4402H17.0142H6.96858L7.36383 9.48038L11.9914 7.63376L17.0142 5.62988Z" fill="#A19C94"/>
<path d="M17.0142 5.64941L22.01 7.64337L26.6036 9.47654L27.0059 10.4222H17.0142H7.02171L7.42475 9.47654L12.0176 7.64337L17.0142 5.64941Z" fill="#A29D95"/>
<path d="M17.0142 5.66895L21.9831 7.65228L26.5427 9.47199L26.9528 10.4034H17.0142H7.07483L7.48496 9.47199L12.0445 7.65228L17.0142 5.66895Z" fill="#A39E96"/>
<path d="M17.0142 5.68848L21.9562 7.66118L26.4825 9.46743L26.899 10.3854H17.0142H7.12867L7.54517 9.46743L12.0714 7.66118L17.0142 5.68848Z" fill="#A49F97"/>
<path d="M17.0142 5.70801L21.93 7.66938L26.4223 9.46217L26.8458 10.3667H17.0142H7.18179L7.60538 9.46217L12.0976 7.66938L17.0142 5.70801Z" fill="#A5A098"/>
<path d="M17.0142 5.72852L21.9031 7.67927L26.3613 9.4586L26.7927 10.349H17.0142H7.23563L7.66629 9.4586L12.1245 7.67927L17.0142 5.72852Z" fill="#A6A199"/>
<path d="M17.0142 5.74707L21.8762 7.6879L26.3011 9.45378L26.7389 10.33H17.0142H7.28875L7.7265 9.45378L12.1515 7.6879L17.0142 5.74707Z" fill="#A7A29A"/>
<path d="M17.0142 5.76758L21.85 7.69779L26.2409 9.4502L26.6857 10.3122H17.0142H7.34187L7.78671 9.4502L12.1777 7.69779L17.0142 5.76758Z" fill="#A8A39B"/>
<path d="M17.0142 5.78711L21.823 7.70669L26.18 9.44494L26.6326 10.2935H17.0142H7.39571L7.84762 9.44494L12.2046 7.70669L17.0142 5.78711Z" fill="#A9A49C"/>
<path d="M17.0142 5.80664L21.7961 7.71489L26.1198 9.44039L26.5788 10.2755H17.0142H7.44883L7.90783 9.44039L12.2315 7.71489L17.0142 5.80664Z" fill="#AAA59C"/>
<path d="M17.0142 5.82715L21.7699 7.72477L26.0596 9.43681L26.5257 10.2578H17.0142H7.50196L7.96804 9.43681L12.2577 7.72477L17.0142 5.82715Z" fill="#ABA69D"/>
<path d="M17.0142 5.84668L21.743 7.73368L25.9987 9.43226L26.4725 10.2391H17.0142H7.55579L8.02896 9.43226L12.2846 7.73368L17.0142 5.84668Z" fill="#ACA79E"/>
<path d="M17.0142 5.86523L21.7161 7.74232L25.9385 9.42744L26.4187 10.2201H17.0142H7.60892L8.08917 9.42744L12.3115 7.74232L17.0142 5.86523Z" fill="#ADA89F"/>
<path d="M17.0142 5.88574L21.6899 7.7522L25.8782 9.42316L26.3656 10.2023H17.0142H7.66204L8.14937 9.42316L12.3377 7.7522L17.0142 5.88574Z" fill="#AEA9A0"/>
<path d="M17.0142 5.90527L21.663 7.7604L25.8173 9.41861L26.3117 10.1836H17.0142H7.71587L8.21029 9.41861L12.3647 7.7604L17.0142 5.90527Z" fill="#AFAAA1"/>
<path d="M17.0142 5.9248L21.636 7.7693L25.7571 9.41406L26.2586 10.1656H17.0142H7.769L8.2705 9.41406L12.3916 7.7693L17.0142 5.9248Z" fill="#B0ABA2"/>
<path d="M17.0142 5.94531L21.6098 7.77919L25.6969 9.41048L26.2055 10.1479H17.0142H7.82213L8.33071 9.41048L12.4178 7.77919L17.0142 5.94531Z" fill="#B1ACA3"/>
<path d="M17.0142 5.96387L21.5829 7.78783L25.6367 9.40495L26.1517 10.1289H17.0142H7.87596L8.39163 9.40495L12.4447 7.78783L17.0142 5.96387Z" fill="#B2ADA4"/>
<path d="M17.0142 5.98438L21.556 7.797L25.5758 9.40138L26.0985 10.1111H17.0142H7.92908L8.45183 9.40138L12.4716 7.797L17.0142 5.98438Z" fill="#B3AEA5"/>
<path d="M17.0142 6.00391L21.5298 7.80591L25.5156 9.39682L26.0454 10.0924H17.0142H7.98221L8.51204 9.39682L12.4978 7.80591L17.0142 6.00391Z" fill="#B4AFA6"/>
<path d="M17.0142 6.02344L21.5029 7.81481L25.4554 9.39227L25.9916 10.0737H17.0142H8.03604L8.57296 9.39227L12.5247 7.81481L17.0142 6.02344Z" fill="#B5B0A7"/>
<path d="M17.0142 6.04395L21.476 7.8247L25.3945 9.38799L25.9385 10.0567H17.0142H8.08916L8.63316 9.38799L12.5517 7.8247L17.0142 6.04395Z" fill="#B6B1A8"/>
<path d="M17.0142 6.0625L21.4497 7.83333L25.3343 9.38317L25.8853 10.0377H17.0142H8.14229L8.69338 9.38317L12.5779 7.83333L17.0142 6.0625Z" fill="#B7B2A9"/>
<path d="M17.0142 6.08203L21.4228 7.84153L25.274 9.37861L25.8315 10.0189H17.0142H8.19612L8.75358 9.37861L12.6048 7.84153L17.0142 6.08203Z" fill="#B8B3AA"/>
<path d="M17.0142 6.10254L21.3959 7.85141L25.2131 9.37504L25.7784 10.0012H17.0142H8.24925L8.8145 9.37504L12.6317 7.85141L17.0142 6.10254Z" fill="#B9B4AB"/>
<path d="M17.0142 6.12207L21.3697 7.86032L25.1529 9.37049L25.7253 9.98249H17.0142H8.30238L8.87471 9.37049L12.6579 7.86032L17.0142 6.12207Z" fill="#BAB5AC"/>
<path d="M17.0142 6.1416L21.3428 7.86923L25.0927 9.36523L25.6714 9.96377H17.0142H8.35621L8.93492 9.36523L12.6848 7.86923L17.0142 6.1416Z" fill="#BBB6AD"/>
<path d="M17.0142 6.16211L21.3159 7.8784L25.0318 9.36165L25.6183 9.94673H17.0142H8.40933L8.99583 9.36165L12.7117 7.8784L17.0142 6.16211Z" fill="#BCB7AE"/>
<path d="M17.0142 6.18066L21.2897 7.88704L24.9716 9.35683L25.5652 9.92775H17.0142H8.46246L9.05604 9.35683L12.7387 7.88704L17.0142 6.18066Z" fill="#BDB8AF"/>
<path d="M17.0142 6.20117L21.2627 7.89692L24.9114 9.35326L25.5113 9.91001H17.0142H8.51629L9.11625 9.35326L12.7649 7.89692L17.0142 6.20117Z" fill="#BEB9B0"/>
<path d="M17.0142 6.2207L21.2358 7.90583L24.8505 9.34799L25.4582 9.89129H17.0142H8.56942L9.17717 9.34799L12.7918 7.90583L17.0142 6.2207Z" fill="#BFBAB1"/>
<path d="M17.0142 6.24023L21.2096 7.91473L24.7902 9.34344L25.4051 9.87257H17.0142H8.62325L9.23737 9.34344L12.8187 7.91473L17.0142 6.24023Z" fill="#C0BAB2"/>
<path d="M17.0142 6.25977L21.1827 7.92293L24.73 9.33889L25.3513 9.85385H17.0142H8.67638L9.29759 9.33889L12.8449 7.92293L17.0142 6.25977Z" fill="#C1BBB3"/>
<path d="M17.0142 6.2793L21.1558 7.93255L24.6691 9.33505L25.2981 9.83655H17.0142H8.7295L9.3585 9.33505L12.8718 7.93255L17.0142 6.2793Z" fill="#C2BCB4"/>
<path d="M17.0142 6.29883L21.1296 7.94145L24.6089 9.3305L25.245 9.81783H17.0142H8.78333L9.41871 9.3305L12.8987 7.94145L17.0142 6.29883Z" fill="#C3BDB5"/>
<path d="M17.0142 6.31934L21.1027 7.95134L24.5487 9.32621L25.1912 9.80009H17.0142H8.83646L9.47891 9.32621L12.925 7.95134L17.0142 6.31934Z" fill="#C4BEB5"/>
<path d="M17.0142 6.33887L21.0757 7.96024L24.4878 9.32166L25.138 9.78137H17.0142H8.88958L9.53983 9.32166L12.9519 7.96024L17.0142 6.33887Z" fill="#C5BFB6"/>
<path d="M17.0142 6.3584L21.0495 7.96844L24.4276 9.31711L25.0849 9.76265H17.0142H8.94342L9.60005 9.31711L12.9788 7.96844L17.0142 6.3584Z" fill="#C6C0B7"/>
<path d="M17.0142 6.37891L21.0226 7.97832L24.3674 9.31353L25.0311 9.74491H17.0142H8.99654L9.66025 9.31353L13.005 7.97832L17.0142 6.37891Z" fill="#C7C1B8"/>
<path d="M17.0142 6.39746L20.9957 7.98696L24.3072 9.308L24.978 9.72663H17.0142H9.04967L9.72117 9.308L13.0319 7.98696L17.0142 6.39746Z" fill="#C8C2B9"/>
<path d="M17.0142 6.41797L20.9695 7.99684L24.2462 9.30443L24.9248 9.70889H17.0142H9.1035L9.78138 9.30443L13.0588 7.99684L17.0142 6.41797Z" fill="#C9C3BA"/>
<path d="M17.0142 6.4375L20.9426 8.00504L24.186 9.29987L24.871 9.69017H17.0142H9.15662L9.84158 9.29987L13.085 8.00504L17.0142 6.4375Z" fill="#CAC4BB"/>
<path d="M17.0142 6.45703L20.9157 8.01395L24.1258 9.29532L24.8179 9.67145H17.0142H9.20975L9.9025 9.29532L13.112 8.01395L17.0142 6.45703Z" fill="#CBC5BC"/>
<path d="M17.0142 6.47656L20.8895 8.02285L24.0649 9.29006L24.764 9.65273H17.0142H9.26358L9.9627 9.29006L13.1389 8.02285L17.0142 6.47656Z" fill="#CCC6BD"/>
<path d="M17.0142 6.49609L20.8625 8.03247L24.0047 9.28622L24.7109 9.63543H17.0142H9.31671L10.0229 9.28622L13.1651 8.03247L17.0142 6.49609Z" fill="#CDC7BE"/>
<path d="M17.0142 6.51562L20.8356 8.04137L23.9445 9.28167L24.6578 9.61671H17.0142H9.36983L10.0831 9.28167L13.192 8.04137L17.0142 6.51562Z" fill="#CEC8BF"/>
<path d="M17.0142 6.53613L20.8087 8.05055L23.8836 9.27809L24.604 9.59897H17.0142H9.42367L10.144 9.27809L13.2189 8.05055L17.0142 6.53613Z" fill="#CFC9C0"/>
<path d="M17.0142 6.55566L20.7825 8.05946L23.8234 9.27354L24.5508 9.58025H17.0142H9.47679L10.2042 9.27354L13.2451 8.05946L17.0142 6.55566Z" fill="#D0CAC1"/>
<path d="M9.52991 9.56153L13.272 8.06836L17.0142 6.5752L20.7556 8.06836L24.4977 9.56153H17.0142H9.52991Z" fill="#D1CBC2"/>
<path d="M30.4583 28.2891H3.65358V29.5364H30.4583V28.2891Z" fill="url(#paint1_linear_542_27301)"/>
<path d="M29.4043 27.042H4.70687V28.2894H29.4043V27.042Z" fill="url(#paint2_linear_542_27301)"/>
<path d="M11.6804 13.7588H6.09875V14.8581H11.6804V13.7588Z" fill="url(#paint3_linear_542_27301)"/>
<path d="M11.6804 13.7588H6.09875V14.8581H11.6804V13.7588Z" fill="url(#paint4_linear_542_27301)"/>
<path d="M11.6804 25.9346H6.09875V27.0339H11.6804V25.9346Z" fill="url(#paint5_linear_542_27301)"/>
<path d="M27.9905 25.9414H22.4088V27.0407H27.9905V25.9414Z" fill="url(#paint6_linear_542_27301)"/>
<path d="M10.5435 14.8584H7.23492V25.9417H10.5435V14.8584Z" fill="url(#paint7_linear_542_27301)"/>
<path d="M27.9905 13.7588H22.4088V14.8581H27.9905V13.7588Z" fill="url(#paint8_linear_542_27301)"/>
<path d="M27.9905 13.7598H22.4088V14.8591H27.9905V13.7598Z" fill="url(#paint9_linear_542_27301)"/>
<path d="M26.8543 14.8584H23.5457V25.9417H26.8543V14.8584Z" fill="url(#paint10_linear_542_27301)"/>
<path d="M29.3066 11.4648H4.77417V13.7584H29.3066V11.4648Z" fill="url(#paint11_linear_542_27301)"/>
<path d="M8.18054 12.0654H5.64684V13.2122H8.18054V12.0654Z" fill="url(#paint12_linear_542_27301)"/>
<path d="M11.5728 12.0654H9.03904V13.2122H11.5728V12.0654Z" fill="url(#paint13_linear_542_27301)"/>
<path d="M14.9657 12.0654H12.432V13.2122H14.9657V12.0654Z" fill="url(#paint14_linear_542_27301)"/>
<path d="M18.3579 12.0654H15.8242V13.2122H18.3579V12.0654Z" fill="url(#paint15_linear_542_27301)"/>
<path d="M21.7508 12.0654H19.2171V13.2122H21.7508V12.0654Z" fill="url(#paint16_linear_542_27301)"/>
<path d="M25.143 12.0654H22.6093V13.2122H25.143V12.0654Z" fill="url(#paint17_linear_542_27301)"/>
<path d="M28.5359 12.0654H26.0022V13.2122H28.5359V12.0654Z" fill="url(#paint18_linear_542_27301)"/>
<path d="M17.0269 4.46856L17.0142 4.46289L3.96667 9.68827L3.94471 9.69676V11.4988H30.0829V9.69676L17.0269 4.46856ZM4.65163 10.7933V10.1756L17.0142 5.22435L29.3767 10.1749V10.7926L4.65163 10.7933Z" fill="url(#paint19_radial_542_27301)"/>
<path d="M20.6642 21.4437V27.0339H13.3471V21.4437C13.3471 19.4228 14.9848 17.7852 17.0057 17.7852C19.0265 17.7852 20.6642 19.4235 20.6642 21.4437Z" fill="url(#paint20_linear_542_27301)"/>
<g opacity="0.25">
<path d="M20.6642 21.4437V27.0339H13.3471V21.4437C13.3471 19.4228 14.9848 17.7852 17.0057 17.7852C19.0265 17.7852 20.6642 19.4235 20.6642 21.4437Z" fill="black"/>
<path d="M17.0057 17.79C19.0237 17.79 20.6592 19.4256 20.6592 21.4436V27.0288H13.3521V21.4436C13.3521 19.4256 14.9876 17.79 17.0057 17.79Z" fill="#000101"/>
<path d="M17.0057 17.7949C19.0209 17.7949 20.6543 19.4283 20.6543 21.4435V27.0238H13.357V21.4435C13.357 19.4283 14.9905 17.7949 17.0057 17.7949Z" fill="#000102"/>
<path d="M17.0057 17.7998C19.018 17.7998 20.6493 19.4311 20.6493 21.4435V27.0195H13.362V21.4435C13.362 19.4311 14.9933 17.7998 17.0057 17.7998Z" fill="#010203"/>
<path d="M17.0057 17.8047C19.0152 17.8047 20.6451 19.4339 20.6451 21.4441V27.0151H13.3662V21.4441C13.3662 19.4339 14.9961 17.8047 17.0057 17.8047Z" fill="#010304"/>
<path d="M17.0057 17.8096C19.0131 17.8096 20.6401 19.4366 20.6401 21.444V27.0101H13.3712V21.444C13.3712 19.4373 14.9982 17.8096 17.0057 17.8096Z" fill="#010305"/>
<path d="M17.0057 17.8145C19.0102 17.8145 20.6352 19.4394 20.6352 21.444V27.0051H13.3762V21.444C13.3762 19.4394 15.0011 17.8145 17.0057 17.8145Z" fill="#010406"/>
<path d="M17.0057 17.8193C19.0074 17.8193 20.6302 19.4421 20.6302 21.4439V27H13.3811V21.4439C13.3811 19.4421 15.0039 17.8193 17.0057 17.8193Z" fill="#010507"/>
<path d="M17.0057 17.8242C19.0046 17.8242 20.6252 19.4449 20.6252 21.4438V26.995H13.3861V21.4438C13.3861 19.4449 15.0067 17.8242 17.0057 17.8242Z" fill="#020508"/>
<path d="M17.0057 17.8291C19.0017 17.8291 20.6203 19.4476 20.6203 21.4437V26.99H13.391V21.4437C13.391 19.4476 15.0096 17.8291 17.0057 17.8291Z" fill="#020609"/>
<path d="M17.0057 17.834C18.9996 17.834 20.6153 19.4504 20.6153 21.4437V26.9857H13.396V21.4437C13.396 19.4504 15.0117 17.834 17.0057 17.834Z" fill="#02070A"/>
<path d="M17.0057 17.8389C18.9968 17.8389 20.6111 19.4532 20.6111 21.4443V26.9813H13.4002V21.4443C13.4002 19.4525 15.0145 17.8389 17.0057 17.8389Z" fill="#02070B"/>
<path d="M17.0057 17.8428C18.994 17.8428 20.6061 19.4549 20.6061 21.4432V26.9753H13.4052V21.4432C13.4052 19.4549 15.0174 17.8428 17.0057 17.8428Z" fill="#02080C"/>
<path d="M17.0057 17.8486C18.9911 17.8486 20.6012 19.4587 20.6012 21.4441V26.9713H13.4102V21.4441C13.4102 19.4587 15.0202 17.8486 17.0057 17.8486Z" fill="#03090D"/>
<path d="M17.0057 17.8535C18.9883 17.8535 20.5962 19.4614 20.5962 21.4441V26.9662H13.4151V21.4441C13.4151 19.4614 15.023 17.8535 17.0057 17.8535Z" fill="#03090E"/>
<path d="M17.0057 17.8584C18.9855 17.8584 20.5912 19.4642 20.5912 21.444V26.9612H13.4201V21.444C13.4201 19.4642 15.0252 17.8584 17.0057 17.8584Z" fill="#030A0E"/>
<path d="M17.0057 17.8633C18.9833 17.8633 20.5863 19.4669 20.5863 21.4439V26.9562H13.425V21.4439C13.425 19.4662 15.028 17.8633 17.0057 17.8633Z" fill="#030B0F"/>
<path d="M17.0057 17.8682C18.9805 17.8682 20.5813 19.469 20.5813 21.4438V26.9518H13.43V21.4438C13.43 19.469 15.0308 17.8682 17.0057 17.8682Z" fill="#030C10"/>
<path d="M17.0057 17.873C18.9777 17.873 20.5771 19.4718 20.5771 21.4445V26.9475H13.4342V21.4445C13.4342 19.4718 15.0337 17.873 17.0057 17.873Z" fill="#030C11"/>
<path d="M17.0057 17.877C18.9748 17.877 20.5721 19.4735 20.5721 21.4434V26.9415H13.4392V21.4434C13.4392 19.4742 15.0365 17.877 17.0057 17.877Z" fill="#040D12"/>
<path d="M17.0057 17.8818C18.972 17.8818 20.5672 19.4763 20.5672 21.4433V26.9365H13.4442V21.4433C13.4442 19.477 15.0393 17.8818 17.0057 17.8818Z" fill="#040E13"/>
<path d="M17.0057 17.8867C18.9699 17.8867 20.5622 19.4791 20.5622 21.4433V26.9314H13.4491V21.4433C13.4491 19.4791 15.0415 17.8867 17.0057 17.8867Z" fill="#040E14"/>
<path d="M17.0057 17.8926C18.967 17.8926 20.5572 19.4828 20.5572 21.4442V26.9274H13.4541V21.4442C13.4541 19.4828 15.0443 17.8926 17.0057 17.8926Z" fill="#040F15"/>
<path d="M17.0057 17.8975C18.9642 17.8975 20.5523 19.4855 20.5523 21.4441V26.9223H13.459V21.4441C13.459 19.4855 15.0471 17.8975 17.0057 17.8975Z" fill="#041016"/>
<path d="M17.0057 17.9023C18.9614 17.9023 20.5473 19.4883 20.5473 21.444V26.918H13.464V21.444C13.464 19.4883 15.05 17.9023 17.0057 17.9023Z" fill="#051017"/>
<path d="M17.0057 17.9072C18.9585 17.9072 20.5424 19.4911 20.5424 21.4439V26.913H13.4682V21.4439C13.469 19.4911 15.0528 17.9072 17.0057 17.9072Z" fill="#051118"/>
<path d="M17.0057 17.9111C18.9564 17.9111 20.5381 19.4928 20.5381 21.4436V26.9077H13.4739V21.4436C13.4732 19.4928 15.0549 17.9111 17.0057 17.9111Z" fill="#051219"/>
<path d="M17.0057 17.916C18.9536 17.916 20.5332 19.4956 20.5332 21.4435V26.9026H13.4782V21.4435C13.4782 19.4956 15.0577 17.916 17.0057 17.916Z" fill="#05121A"/>
<path d="M17.0057 17.9209C18.9507 17.9209 20.5282 19.4984 20.5282 21.4434V26.8976H13.4831V21.4434C13.4831 19.4984 15.0606 17.9209 17.0057 17.9209Z" fill="#05131B"/>
<path d="M17.0057 17.9258C18.9479 17.9258 20.5233 19.5011 20.5233 21.4434V26.8926H13.4881V21.4434C13.4881 19.5011 15.0634 17.9258 17.0057 17.9258Z" fill="#06141C"/>
<path d="M17.0057 17.9307C18.9451 17.9307 20.5183 19.5039 20.5183 21.4433V26.8875H13.493V21.4433C13.493 19.5039 15.0663 17.9307 17.0057 17.9307Z" fill="#06141D"/>
<path d="M17.0057 17.9355C18.943 17.9355 20.5133 19.5066 20.5133 21.4432V26.8825H13.4973V21.4432C13.498 19.5059 15.0684 17.9355 17.0057 17.9355Z" fill="#06151E"/>
<path d="M17.0057 17.9414C18.9401 17.9414 20.5084 19.5104 20.5084 21.4441V26.8792H13.5023V21.4441C13.503 19.5097 15.0712 17.9414 17.0057 17.9414Z" fill="#06161F"/>
<path d="M17.0057 17.9463C18.9373 17.9463 20.5041 19.5131 20.5041 21.4447V26.8748H13.5079V21.4447C13.5072 19.5124 15.074 17.9463 17.0057 17.9463Z" fill="#061620"/>
<path d="M17.0057 17.9502C18.9345 17.9502 20.4992 19.5149 20.4992 21.4437V26.8688H13.5122V21.4437C13.5122 19.5149 15.0769 17.9502 17.0057 17.9502Z" fill="#071721"/>
<path d="M17.0057 17.9551C18.9316 17.9551 20.4942 19.517 20.4942 21.4436V26.8638H13.5171V21.4436C13.5171 19.5177 15.0797 17.9551 17.0057 17.9551Z" fill="#071822"/>
<path d="M17.0057 17.96C18.9295 17.96 20.4892 19.5197 20.4892 21.4435V26.8588H13.5221V21.4435C13.5221 19.5197 15.0818 17.96 17.0057 17.96Z" fill="#071823"/>
<path d="M17.0057 17.9648C18.9267 17.9648 20.4843 19.5225 20.4843 21.4435V26.8537H13.527V21.4435C13.527 19.5225 15.0847 17.9648 17.0057 17.9648Z" fill="#071924"/>
<path d="M17.0057 17.9697C18.9238 17.9697 20.4793 19.5252 20.4793 21.4434V26.8487H13.5313V21.4434C13.532 19.5252 15.0875 17.9697 17.0057 17.9697Z" fill="#071A25"/>
<path d="M17.0057 17.9746C18.921 17.9746 20.4744 19.528 20.4744 21.4433V26.8444H13.5362V21.4433C13.537 19.528 15.0903 17.9746 17.0057 17.9746Z" fill="#081A26"/>
<path d="M17.0057 17.9795C18.9182 17.9795 20.4701 19.5307 20.4701 21.4439V26.84H13.5419V21.4439C13.5412 19.5307 15.0932 17.9795 17.0057 17.9795Z" fill="#081B27"/>
<path d="M17.0057 17.9844C18.916 17.9844 20.4652 19.5335 20.4652 21.4439V26.835H13.5469V21.4439C13.5462 19.5342 15.0953 17.9844 17.0057 17.9844Z" fill="#081C28"/>
<path d="M17.0057 17.9893C18.9132 17.9893 20.4602 19.5363 20.4602 21.4438V26.83H13.5511V21.4438C13.5511 19.5363 15.0981 17.9893 17.0057 17.9893Z" fill="#081C29"/>
<path d="M17.0057 17.9941C18.9104 17.9941 20.4552 19.539 20.4552 21.4437V26.8249H13.5561V21.4437C13.5561 19.539 15.101 17.9941 17.0057 17.9941Z" fill="#081D2A"/>
<path d="M17.0057 17.999C18.9075 17.999 20.4503 19.5418 20.4503 21.4436V26.8199H13.561V21.4436C13.561 19.5418 15.1038 17.999 17.0057 17.999Z" fill="#091E2A"/>
<path d="M17.0057 18.0039C18.9047 18.0039 20.4453 19.5445 20.4453 21.4436V26.8149H13.5653V21.4436C13.566 19.5445 15.1066 18.0039 17.0057 18.0039Z" fill="#091E2B"/>
<path d="M17.0057 18.0088C18.9026 18.0088 20.4404 19.5473 20.4404 21.4435V26.8105H13.5702V21.4435C13.571 19.5473 15.1087 18.0088 17.0057 18.0088Z" fill="#091F2C"/>
<path d="M17.0057 18.0137C18.8997 18.0137 20.4361 19.55 20.4361 21.4441V26.8062H13.5759V21.4441C13.5752 19.5493 15.1116 18.0137 17.0057 18.0137Z" fill="#09202D"/>
<path d="M17.0057 18.0186C18.8969 18.0186 20.4312 19.5528 20.4312 21.4441V26.8012H13.5809V21.4441C13.5802 19.5528 15.1144 18.0186 17.0057 18.0186Z" fill="#09202E"/>
<path d="M17.0057 18.0234C18.8941 18.0234 20.4262 19.5556 20.4262 21.444V26.7961H13.5851V21.444C13.5851 19.5556 15.1172 18.0234 17.0057 18.0234Z" fill="#0A212F"/>
<path d="M17.0057 18.0283C18.8912 18.0283 20.4212 19.5583 20.4212 21.4439V26.7911H13.5901V21.4439C13.5901 19.5583 15.1201 18.0283 17.0057 18.0283Z" fill="#0A2230"/>
<path d="M17.0057 18.0332C18.8891 18.0332 20.4163 19.5611 20.4163 21.4438V26.7861H13.595V21.4438C13.595 19.5611 15.1222 18.0332 17.0057 18.0332Z" fill="#0A2331"/>
<path d="M17.0057 18.0381C18.8863 18.0381 20.4113 19.5638 20.4113 21.4438V26.781H13.6V21.4438C13.6 19.5631 15.125 18.0381 17.0057 18.0381Z" fill="#0A2332"/>
<path d="M17.0057 18.043C18.8835 18.043 20.4064 19.5659 20.4064 21.4437V26.7767H13.6042V21.4437C13.605 19.5659 15.1279 18.043 17.0057 18.043Z" fill="#0A2433"/>
<path d="M17.0057 18.0479C18.8806 18.0479 20.4021 19.5686 20.4021 21.4443V26.7724H13.6099V21.4443C13.6092 19.5686 15.1307 18.0479 17.0057 18.0479Z" fill="#0A2534"/>
<path d="M17.0057 18.0518C18.8778 18.0518 20.3972 19.5704 20.3972 21.4433V26.7664H13.6142V21.4433C13.6142 19.5711 15.1335 18.0518 17.0057 18.0518Z" fill="#0B2535"/>
<path d="M17.0057 18.0576C18.8757 18.0576 20.3922 19.5742 20.3922 21.4442V26.7623H13.6191V21.4442C13.6191 19.5749 15.1357 18.0576 17.0057 18.0576Z" fill="#0B2636"/>
<path d="M17.0057 18.0625C18.8728 18.0625 20.3872 19.5769 20.3872 21.4441V26.7573H13.6241V21.4441C13.6241 19.5769 15.1385 18.0625 17.0057 18.0625Z" fill="#0B2737"/>
<path d="M17.0057 18.0674C18.87 18.0674 20.3823 19.5797 20.3823 21.444V26.7523H13.629V21.444C13.629 19.5797 15.1413 18.0674 17.0057 18.0674Z" fill="#0B2738"/>
<path d="M17.0057 18.0723C18.8672 18.0723 20.3773 19.5824 20.3773 21.4439V26.7472H13.6333V21.4439C13.634 19.5824 15.1442 18.0723 17.0057 18.0723Z" fill="#0B2839"/>
<path d="M17.0057 18.0771C18.8643 18.0771 20.3724 19.5852 20.3724 21.4439V26.7429H13.6382V21.4439C13.639 19.5852 15.147 18.0771 17.0057 18.0771Z" fill="#0C293A"/>
<path d="M17.0057 18.082C18.8622 18.082 20.3681 19.5879 20.3681 21.4445V26.7386H13.6439V21.4445C13.6432 19.5879 15.1491 18.082 17.0057 18.082Z" fill="#0C293B"/>
<path d="M17.0057 18.0859C18.8594 18.0859 20.3632 19.5897 20.3632 21.4434V26.7326H13.6489V21.4434C13.6482 19.5897 15.152 18.0859 17.0057 18.0859Z" fill="#0C2A3C"/>
<path d="M17.0057 18.0908C18.8565 18.0908 20.3582 19.5925 20.3582 21.4434V26.7275H13.6531V21.4434C13.6531 19.5925 15.1548 18.0908 17.0057 18.0908Z" fill="#0C2B3D"/>
<path d="M17.0057 18.0957C18.8537 18.0957 20.3532 19.5952 20.3532 21.4433V26.7225H13.6581V21.4433C13.6581 19.5952 15.1576 18.0957 17.0057 18.0957Z" fill="#0C2B3E"/>
<path d="M17.0057 18.1006C18.8509 18.1006 20.3483 19.598 20.3483 21.4432V26.7175H13.663V21.4432C13.663 19.598 15.1605 18.1006 17.0057 18.1006Z" fill="#0D2C3F"/>
<path d="M17.0057 18.1064C18.8487 18.1064 20.3433 19.6017 20.3433 21.4441V26.7134H13.6673V21.4441C13.668 19.6017 15.1626 18.1064 17.0057 18.1064Z" fill="#0D2D40"/>
<path d="M17.0057 18.1113C18.8459 18.1113 20.3384 19.6045 20.3384 21.444V26.7091H13.6722V21.444C13.673 19.6038 15.1654 18.1113 17.0057 18.1113Z" fill="#0D2D41"/>
<path d="M17.0057 18.1162C18.8431 18.1162 20.3341 19.6073 20.3341 21.4447V26.704H13.6779V21.444C13.6772 19.6065 15.1682 18.1162 17.0057 18.1162Z" fill="#0D2E42"/>
<path d="M17.0057 18.1201C18.8402 18.1201 20.3292 19.609 20.3292 21.4436V26.6987H13.6829V21.4436C13.6822 19.609 15.1711 18.1201 17.0057 18.1201Z" fill="#0D2F43"/>
<path d="M17.0057 18.125C18.8374 18.125 20.3242 19.6111 20.3242 21.4435V26.6937H13.6871V21.4435C13.6871 19.6118 15.1739 18.125 17.0057 18.125Z" fill="#0E2F44"/>
<path d="M17.0057 18.1299C18.8353 18.1299 20.3192 19.6138 20.3192 21.4435V26.6887H13.6921V21.4435C13.6921 19.6145 15.176 18.1299 17.0057 18.1299Z" fill="#0E3045"/>
<path d="M17.0057 18.1348C18.8325 18.1348 20.3143 19.6166 20.3143 21.4434V26.6836H13.697V21.4434C13.697 19.6166 15.1789 18.1348 17.0057 18.1348Z" fill="#0E3145"/>
<path d="M17.0057 18.1396C18.8296 18.1396 20.3093 19.6194 20.3093 21.4433V26.6786H13.7013V21.4433C13.702 19.6194 15.1817 18.1396 17.0057 18.1396Z" fill="#0E3146"/>
<path d="M17.0057 18.1445C18.8268 18.1445 20.3044 19.6221 20.3044 21.4432V26.6743H13.7062V21.4432C13.707 19.6221 15.1845 18.1445 17.0057 18.1445Z" fill="#0E3247"/>
<path d="M17.0057 18.1504C18.824 18.1504 20.3001 19.6258 20.3001 21.4448V26.6709H13.7119V21.4448C13.7112 19.6258 15.1874 18.1504 17.0057 18.1504Z" fill="#0F3348"/>
<path d="M17.0057 18.1543C18.8218 18.1543 20.2952 19.6276 20.2952 21.4438V26.6649H13.7169V21.4438C13.7162 19.6283 15.1895 18.1543 17.0057 18.1543Z" fill="#0F3349"/>
<path d="M17.0057 18.1592C18.819 18.1592 20.2902 19.6304 20.2902 21.4437V26.6599H13.7211V21.4437C13.7211 19.6304 15.1923 18.1592 17.0057 18.1592Z" fill="#0F344A"/>
<path d="M17.0057 18.1641C18.8162 18.1641 20.2852 19.6331 20.2852 21.4436V26.6549H13.7261V21.4436C13.7261 19.6331 15.1952 18.1641 17.0057 18.1641Z" fill="#0F354B"/>
<path d="M17.0057 18.1689C18.8133 18.1689 20.2803 19.6359 20.2803 21.4436V26.6498H13.731V21.4436C13.731 19.6359 15.198 18.1689 17.0057 18.1689Z" fill="#0F354C"/>
<path d="M17.0057 18.1738C18.8105 18.1738 20.2753 19.6387 20.2753 21.4435V26.6448H13.736V21.4435C13.736 19.6387 15.2008 18.1738 17.0057 18.1738Z" fill="#10364D"/>
<path d="M17.0057 18.1787C18.8084 18.1787 20.2704 19.6414 20.2704 21.4434V26.6405H13.7402V21.4434C13.741 19.6414 15.203 18.1787 17.0057 18.1787Z" fill="#10374E"/>
<path d="M17.0057 18.1836C18.8055 18.1836 20.2661 19.6442 20.2661 21.4441V26.6361H13.7459V21.4441C13.7452 19.6435 15.2058 18.1836 17.0057 18.1836Z" fill="#10374F"/>
<path d="M17.0057 18.1885C18.8027 18.1885 20.2612 19.6469 20.2612 21.444V26.6311H13.7509V21.444C13.7502 19.6469 15.2086 18.1885 17.0057 18.1885Z" fill="#103850"/>
<path d="M17.0057 18.1934C18.7999 18.1934 20.2562 19.6497 20.2562 21.4439V26.6261H13.7551V21.4439C13.7551 19.6497 15.2115 18.1934 17.0057 18.1934Z" fill="#103951"/>
<path d="M17.0057 18.1982C18.797 18.1982 20.2512 19.6525 20.2512 21.4438V26.621H13.7601V21.4438C13.7601 19.6525 15.2143 18.1982 17.0057 18.1982Z" fill="#103A52"/>
<path d="M17.0057 18.2031C18.7942 18.2031 20.2463 19.6552 20.2463 21.4438V26.616H13.765V21.4438C13.765 19.6552 15.2164 18.2031 17.0057 18.2031Z" fill="#113A53"/>
<path d="M17.0057 18.208C18.7921 18.208 20.2413 19.658 20.2413 21.4437V26.611H13.77V21.4437C13.77 19.6573 15.2192 18.208 17.0057 18.208Z" fill="#113B54"/>
<path d="M17.0057 18.2129C18.7892 18.2129 20.2364 19.66 20.2364 21.4436V26.6066H13.7742V21.4436C13.775 19.66 15.2221 18.2129 17.0057 18.2129Z" fill="#113C55"/>
<path d="M17.0057 18.2178C18.7864 18.2178 20.2321 19.6628 20.2321 21.4442V26.6023H13.7799V21.4442C13.7792 19.6628 15.2249 18.2178 17.0057 18.2178Z" fill="#113C56"/>
<path d="M17.0057 18.2227C18.7836 18.2227 20.2272 19.6655 20.2272 21.4442V26.5973H13.7842V21.4442C13.7842 19.6662 15.2277 18.2227 17.0057 18.2227Z" fill="#113D57"/>
<path d="M17.0057 18.2275C18.7807 18.2275 20.2222 19.6683 20.2222 21.4441V26.5922H13.7891V21.4441C13.7891 19.669 15.2306 18.2275 17.0057 18.2275Z" fill="#123E58"/>
<path d="M17.0057 18.2324C18.7786 18.2324 20.2172 19.671 20.2172 21.444V26.5872H13.7941V21.444C13.7941 19.671 15.2327 18.2324 17.0057 18.2324Z" fill="#123E59"/>
<path d="M17.0057 18.2373C18.7758 18.2373 20.2123 19.6738 20.2123 21.4439V26.5822H13.799V21.4439C13.799 19.6738 15.2355 18.2373 17.0057 18.2373Z" fill="#123F5A"/>
<path d="M17.0057 18.2422C18.773 18.2422 20.2073 19.6766 20.2073 21.4439V26.5771H13.804V21.4439C13.804 19.6766 15.2384 18.2422 17.0057 18.2422Z" fill="#12405B"/>
<path d="M17.0057 18.2471C18.7701 18.2471 20.2024 19.6793 20.2024 21.4438V26.5728H13.8082V21.4438C13.809 19.6793 15.2412 18.2471 17.0057 18.2471Z" fill="#12405C"/>
<path d="M17.0057 18.252C18.7673 18.252 20.1974 19.6821 20.1974 21.4437V26.5678H13.8132V21.4437C13.8132 19.6821 15.244 18.252 17.0057 18.252Z" fill="#13415D"/>
<path d="M17.0057 18.2559C18.7652 18.2559 20.1932 19.6839 20.1932 21.4434V26.5625H13.8189V21.4434C13.8182 19.6839 15.2462 18.2559 17.0057 18.2559Z" fill="#13425E"/>
<path d="M17.0057 18.2607C18.7623 18.2607 20.1882 19.6866 20.1882 21.4433V26.5575H13.8231V21.4433C13.8231 19.6866 15.249 18.2607 17.0057 18.2607Z" fill="#13425F"/>
<path d="M17.0057 18.2666C18.7595 18.2666 20.1832 19.6904 20.1832 21.4442V26.5534H13.8281V21.4442C13.8281 19.6904 15.2518 18.2666 17.0057 18.2666Z" fill="#134360"/>
<path d="M17.0057 18.2715C18.7567 18.2715 20.1783 19.6931 20.1783 21.4441V26.5484H13.833V21.4441C13.833 19.6931 15.2547 18.2715 17.0057 18.2715Z" fill="#134461"/>
<path d="M17.0057 18.2764C18.7538 18.2764 20.1733 19.6959 20.1733 21.444V26.5433H13.838V21.444C13.838 19.6959 15.2575 18.2764 17.0057 18.2764Z" fill="#144461"/>
<path d="M17.0057 18.2812C18.7517 18.2812 20.1684 19.6986 20.1684 21.444V26.5383H13.8422V21.444C13.843 19.6979 15.2596 18.2812 17.0057 18.2812Z" fill="#144562"/>
<path d="M17.0057 18.2861C18.7489 18.2861 20.1634 19.7014 20.1634 21.4439V26.534H13.8479V21.4439C13.8479 19.7007 15.2625 18.2861 17.0057 18.2861Z" fill="#144663"/>
<path d="M17.0057 18.291C18.746 18.291 20.1592 19.7041 20.1592 21.4445V26.5296H13.8529V21.4445C13.8522 19.7034 15.2653 18.291 17.0057 18.291Z" fill="#144664"/>
<path d="M17.0057 18.2949C18.7432 18.2949 20.1542 19.7059 20.1542 21.4435V26.5236H13.8571V21.4435C13.8571 19.7059 15.2681 18.2949 17.0057 18.2949Z" fill="#144765"/>
<path d="M17.0057 18.2998C18.7404 18.2998 20.1492 19.708 20.1492 21.4434V26.5186H13.8621V21.4434C13.8621 19.7087 15.271 18.2998 17.0057 18.2998Z" fill="#154866"/>
<path d="M17.0057 18.3047C18.7382 18.3047 20.1443 19.7107 20.1443 21.4433V26.5136H13.867V21.4433C13.867 19.7107 15.2731 18.3047 17.0057 18.3047Z" fill="#154867"/>
<path d="M17.0057 18.3096C18.7354 18.3096 20.1393 19.7135 20.1393 21.4432V26.5085H13.872V21.4432C13.872 19.7135 15.2759 18.3096 17.0057 18.3096Z" fill="#154968"/>
<path d="M17.0057 18.3154C18.7326 18.3154 20.1344 19.7172 20.1344 21.4441V26.5045H13.8762V21.4441C13.877 19.7172 15.2787 18.3154 17.0057 18.3154Z" fill="#154A69"/>
<path d="M17.0057 18.3203C18.7297 18.3203 20.1294 19.72 20.1294 21.4441V26.5001H13.8812V21.4441C13.8819 19.72 15.2816 18.3203 17.0057 18.3203Z" fill="#154A6A"/>
<path d="M17.0057 18.3252C18.7269 18.3252 20.1252 19.7227 20.1252 21.4447V26.4958H13.8869V21.4447C13.8862 19.7227 15.2844 18.3252 17.0057 18.3252Z" fill="#164B6B"/>
<path d="M17.0057 18.3291C18.7248 18.3291 20.1202 19.7245 20.1202 21.4436V26.4898H13.8911V21.4436C13.8911 19.7252 15.2865 18.3291 17.0057 18.3291Z" fill="#164C6C"/>
<path d="M17.0057 18.334C18.722 18.334 20.1152 19.7273 20.1152 21.4436V26.4848H13.8961V21.4436C13.8961 19.7273 15.2894 18.334 17.0057 18.334Z" fill="#164C6D"/>
<path d="M17.0057 18.3389C18.7191 18.3389 20.1103 19.73 20.1103 21.4435V26.4797H13.901V21.4435C13.901 19.73 15.2922 18.3389 17.0057 18.3389Z" fill="#164D6E"/>
<path d="M17.0057 18.3438C18.7163 18.3438 20.1053 19.7328 20.1053 21.4434V26.4747H13.906V21.4434C13.906 19.7328 15.295 18.3438 17.0057 18.3438Z" fill="#164E6F"/>
<path d="M17.0057 18.3486C18.7135 18.3486 20.1004 19.7355 20.1004 21.4433V26.4697H13.9102V21.4433C13.911 19.7355 15.2979 18.3486 17.0057 18.3486Z" fill="#174E70"/>
<path d="M17.0057 18.3535C18.7113 18.3535 20.0954 19.7383 20.0954 21.4433V26.4653H13.9152V21.4433C13.9159 19.7383 15.3 18.3535 17.0057 18.3535Z" fill="#174F71"/>
<path d="M17.0057 18.3594C18.7085 18.3594 20.0912 19.742 20.0912 21.4449V26.462H13.9209V21.4449C13.9202 19.7413 15.3028 18.3594 17.0057 18.3594Z" fill="#175072"/>
<path d="M17.0057 18.3633C18.7057 18.3633 20.0862 19.7438 20.0862 21.4438V26.456H13.9258V21.4438C13.9251 19.7438 15.3057 18.3633 17.0057 18.3633Z" fill="#175173"/>
<path d="M17.0057 18.3682C18.7028 18.3682 20.0812 19.7466 20.0812 21.4437V26.451H13.9301V21.4437C13.9301 19.7466 15.3085 18.3682 17.0057 18.3682Z" fill="#175174"/>
<path d="M17.0057 18.373C18.7 18.373 20.0763 19.7493 20.0763 21.4437V26.4459H13.935V21.4437C13.935 19.7493 15.3113 18.373 17.0057 18.373Z" fill="#175275"/>
<path d="M17.0057 18.3779C18.6979 18.3779 20.0713 19.7521 20.0713 21.4436V26.4409H13.94V21.4436C13.94 19.7521 15.3135 18.3779 17.0057 18.3779Z" fill="#185376"/>
<path d="M17.0057 18.3828C18.695 18.3828 20.0664 19.7549 20.0664 21.4435V26.4359H13.9442V21.4435C13.945 19.7541 15.3163 18.3828 17.0057 18.3828Z" fill="#185377"/>
<path d="M17.0057 18.3877C18.6922 18.3877 20.0614 19.7569 20.0614 21.4434V26.4315H13.9492V21.4434C13.9499 19.7569 15.3191 18.3877 17.0057 18.3877Z" fill="#185478"/>
<path d="M17.0057 18.3926C18.6894 18.3926 20.0572 19.7597 20.0572 21.4441V26.4272H13.9542V21.4441C13.9542 19.7597 15.322 18.3926 17.0057 18.3926Z" fill="#185579"/>
<path d="M17.0057 18.3975C18.6865 18.3975 20.0522 19.7624 20.0522 21.444V26.4222H13.9598V21.444C13.9591 19.7631 15.3248 18.3975 17.0057 18.3975Z" fill="#18557A"/>
<path d="M17.0057 18.4023C18.6844 18.4023 20.0472 19.7652 20.0472 21.4439V26.4171H13.9641V21.4439C13.9641 19.7659 15.3269 18.4023 17.0057 18.4023Z" fill="#19567B"/>
<path d="M17.0057 18.4072C18.6816 18.4072 20.0423 19.7679 20.0423 21.4439V26.4121H13.969V21.4439C13.969 19.7679 15.3297 18.4072 17.0057 18.4072Z" fill="#19577C"/>
<path d="M17.0057 18.4121C18.6787 18.4121 20.0373 19.7707 20.0373 21.4438V26.4071H13.974V21.4438C13.974 19.7707 15.3326 18.4121 17.0057 18.4121Z" fill="#19577D"/>
<path d="M17.0057 18.417C18.6759 18.417 20.0324 19.7735 20.0324 21.4437V26.402H13.9782V21.4437C13.979 19.7735 15.3354 18.417 17.0057 18.417Z" fill="#19587D"/>
<path d="M17.0057 18.4219C18.6731 18.4219 20.0274 19.7762 20.0274 21.4436V26.3977H13.9832V21.4436C13.9839 19.7762 15.3382 18.4219 17.0057 18.4219Z" fill="#19597E"/>
<path d="M17.0057 18.4268C18.671 18.4268 20.0232 19.779 20.0232 21.4443V26.3934H13.9889V21.4443C13.9882 19.779 15.3404 18.4268 17.0057 18.4268Z" fill="#1A597F"/>
<path d="M17.0057 18.4316C18.6681 18.4316 20.0182 19.7817 20.0182 21.4442V26.3884H13.9938V21.4442C13.9931 19.7817 15.3432 18.4316 17.0057 18.4316Z" fill="#1A5A80"/>
<path d="M17.0057 18.4365C18.6653 18.4365 20.0132 19.7845 20.0132 21.4441V26.3833H13.9981V21.4441C13.9981 19.7845 15.346 18.4365 17.0057 18.4365Z" fill="#1A5B81"/>
<path d="M17.0057 18.4414C18.6625 18.4414 20.0083 19.7872 20.0083 21.444V26.3783H14.003V21.444C14.003 19.7872 15.3489 18.4414 17.0057 18.4414Z" fill="#1A5B82"/>
<path d="M17.0057 18.4463C18.6596 18.4463 20.0033 19.79 20.0033 21.444V26.3732H14.008V21.444C14.008 19.79 15.3517 18.4463 17.0057 18.4463Z" fill="#1A5C83"/>
<path d="M17.0057 18.4512C18.6575 18.4512 19.9984 19.7928 19.9984 21.4439V26.3682H14.0122V21.4439C14.013 19.7928 15.3538 18.4512 17.0057 18.4512Z" fill="#1B5D84"/>
<path d="M17.0057 18.4561C18.6547 18.4561 19.9934 19.7955 19.9934 21.4438V26.3639H14.0179V21.4438C14.0179 19.7948 15.3567 18.4561 17.0057 18.4561Z" fill="#1B5D85"/>
<path d="M17.0057 18.4609C18.6518 18.4609 19.9892 19.7983 19.9892 21.4444V26.3596H14.0229V21.4444C14.0222 19.7976 15.3595 18.4609 17.0057 18.4609Z" fill="#1B5E86"/>
<path d="M17.0057 18.4648C18.649 18.4648 19.9842 19.8001 19.9842 21.4434V26.3536H14.0278V21.4434C14.0271 19.8001 15.3623 18.4648 17.0057 18.4648Z" fill="#1B5F87"/>
<path d="M17.0057 18.4697C18.6462 18.4697 19.9792 19.8021 19.9792 21.4433V26.3485H14.0321V21.4433C14.0321 19.8028 15.3652 18.4697 17.0057 18.4697Z" fill="#1B5F88"/>
<path d="M17.0057 18.4746C18.644 18.4746 19.9743 19.8049 19.9743 21.4432V26.3435H14.037V21.4432C14.037 19.8056 15.3673 18.4746 17.0057 18.4746Z" fill="#1C6089"/>
<path d="M17.0057 18.4805C18.6412 18.4805 19.9693 19.8086 19.9693 21.4441V26.3394H14.042V21.4441C14.042 19.8086 15.3701 18.4805 17.0057 18.4805Z" fill="#1C618A"/>
<path d="M17.0057 18.4854C18.6384 18.4854 19.9644 19.8114 19.9644 21.4441V26.3344H14.0462V21.4441C14.047 19.8114 15.373 18.4854 17.0057 18.4854Z" fill="#1C618B"/>
<path d="M17.0057 18.4902C18.6355 18.4902 19.9594 19.8141 19.9594 21.444V26.3301H14.0512V21.444C14.0519 19.8141 15.3758 18.4902 17.0057 18.4902Z" fill="#1C628C"/>
<path d="M17.0057 18.4951C18.6327 18.4951 19.9552 19.8169 19.9552 21.4446V26.3257H14.0569V21.4446C14.0562 19.8169 15.3786 18.4951 17.0057 18.4951Z" fill="#1C638D"/>
<path d="M17.0057 18.499C18.6306 18.499 19.9502 19.8186 19.9502 21.4436V26.3197H14.0618V21.4436C14.0611 19.8194 15.3807 18.499 17.0057 18.499Z" fill="#1D638E"/>
<path d="M17.0057 18.5039C18.6277 18.5039 19.9452 19.8214 19.9452 21.4435V26.3147H14.0661V21.4435C14.0661 19.8214 15.3836 18.5039 17.0057 18.5039Z" fill="#1D648F"/>
<path d="M17.0057 18.5088C18.6249 18.5088 19.9403 19.8242 19.9403 21.4434V26.3097H14.071V21.4434C14.071 19.8242 15.3864 18.5088 17.0057 18.5088Z" fill="#1D6590"/>
<path d="M17.0057 18.5137C18.6221 18.5137 19.9353 19.8269 19.9353 21.4433V26.3046H14.076V21.4433C14.076 19.8269 15.3892 18.5137 17.0057 18.5137Z" fill="#1D6591"/>
<path d="M17.0057 18.5186C18.6192 18.5186 19.9304 19.8297 19.9304 21.4433V26.2996H14.0802V21.4433C14.081 19.8297 15.3921 18.5186 17.0057 18.5186Z" fill="#1D6692"/>
<path d="M17.0057 18.5244C18.6171 18.5244 19.9254 19.8334 19.9254 21.4442V26.2962H14.0852V21.4442C14.0859 19.8334 15.3942 18.5244 17.0057 18.5244Z" fill="#1D6793"/>
<path d="M17.0057 18.5293C18.6143 18.5293 19.9212 19.8362 19.9212 21.4448V26.2919H14.0909V21.4448C14.0902 19.8355 15.397 18.5293 17.0057 18.5293Z" fill="#1E6894"/>
<path d="M17.0057 18.5332C18.6115 18.5332 19.9162 19.838 19.9162 21.4437V26.2859H14.0958V21.4437C14.0951 19.838 15.3999 18.5332 17.0057 18.5332Z" fill="#1E6895"/>
<path d="M17.0057 18.5381C18.6086 18.5381 19.9112 19.8407 19.9112 21.4437V26.2809H14.1001V21.4437C14.1001 19.8407 15.4027 18.5381 17.0057 18.5381Z" fill="#1E6996"/>
<path d="M17.0057 18.543C18.6058 18.543 19.9063 19.8435 19.9063 21.4436V26.2758H14.105V21.4436C14.105 19.8435 15.4055 18.543 17.0057 18.543Z" fill="#1E6A97"/>
<path d="M17.0057 18.5479C18.6037 18.5479 19.9013 19.8462 19.9013 21.4435V26.2708H14.11V21.4435C14.11 19.8462 15.4077 18.5479 17.0057 18.5479Z" fill="#1E6A98"/>
<path d="M17.0057 18.5527C18.6008 18.5527 19.8964 19.849 19.8964 21.4434V26.2658H14.115V21.4434C14.115 19.8483 15.4105 18.5527 17.0057 18.5527Z" fill="#1F6B98"/>
<path d="M17.0057 18.5576C18.598 18.5576 19.8914 19.851 19.8914 21.4434V26.2615H14.1192V21.4434C14.1199 19.851 15.4133 18.5576 17.0057 18.5576Z" fill="#1F6C99"/>
<path d="M17.0057 18.5625C18.5952 18.5625 19.8872 19.8538 19.8872 21.444V26.2571H14.1242V21.444C14.1242 19.8538 15.4162 18.5625 17.0057 18.5625Z" fill="#1F6C9A"/>
<path d="M17.0057 18.5674C18.5923 18.5674 19.8822 19.8566 19.8822 21.4439V26.2521H14.1298V21.4439C14.1291 19.8573 15.419 18.5674 17.0057 18.5674Z" fill="#1F6D9B"/>
<path d="M17.0057 18.5723C18.5895 18.5723 19.8772 19.8593 19.8772 21.4438V26.2471H14.1341V21.4438C14.1341 19.86 15.4218 18.5723 17.0057 18.5723Z" fill="#1F6E9C"/>
<path d="M17.0057 18.5771C18.5874 18.5771 19.8723 19.8621 19.8723 21.4438V26.242H14.139V21.4438C14.139 19.8621 15.424 18.5771 17.0057 18.5771Z" fill="#206E9D"/>
<path d="M17.0057 18.582C18.5845 18.582 19.8673 19.8648 19.8673 21.4437V26.237H14.144V21.4437C14.144 19.8648 15.4268 18.582 17.0057 18.582Z" fill="#206F9E"/>
<path d="M17.0057 18.5869C18.5817 18.5869 19.8624 19.8676 19.8624 21.4436V26.232H14.149V21.4436C14.149 19.8676 15.4296 18.5869 17.0057 18.5869Z" fill="#20709F"/>
<path d="M17.0057 18.5918C18.5789 18.5918 19.8574 19.8703 19.8574 21.4435V26.2276H14.1532V21.4435C14.1539 19.8703 15.4325 18.5918 17.0057 18.5918Z" fill="#2070A0"/>
<path d="M17.0057 18.5967C18.576 18.5967 19.8532 19.8731 19.8532 21.4442V26.2233H14.1589V21.4442C14.1582 19.8731 15.4353 18.5967 17.0057 18.5967Z" fill="#2071A1"/>
<path d="M17.0057 18.6016C18.5739 18.6016 19.8482 19.8759 19.8482 21.4441V26.2183H14.1638V21.4441C14.1631 19.8759 15.4374 18.6016 17.0057 18.6016Z" fill="#2172A2"/>
<path d="M17.0057 18.6064C18.5711 18.6064 19.8432 19.8786 19.8432 21.444V26.2132H14.1681V21.444C14.1681 19.8786 15.4402 18.6064 17.0057 18.6064Z" fill="#2172A3"/>
<path d="M17.0057 18.6113C18.5682 18.6113 19.8383 19.8814 19.8383 21.444V26.2082H14.173V21.444C14.173 19.8814 15.4431 18.6113 17.0057 18.6113Z" fill="#2173A4"/>
<path d="M17.0057 18.6162C18.5654 18.6162 19.8333 19.8841 19.8333 21.4439V26.2032H14.178V21.4439C14.178 19.8841 15.4459 18.6162 17.0057 18.6162Z" fill="#2174A5"/>
<path d="M17.0057 18.6211C18.5626 18.6211 19.8284 19.8869 19.8284 21.4438V26.1981H14.183V21.4438C14.183 19.8869 15.4487 18.6211 17.0057 18.6211Z" fill="#2174A6"/>
<path d="M17.0057 18.626C18.5605 18.626 19.8234 19.8896 19.8234 21.4437V26.1938H14.1879V21.4437C14.1879 19.8889 15.4509 18.626 17.0057 18.626Z" fill="#2275A7"/>
<path d="M17.0057 18.6309C18.5576 18.6309 19.8185 19.8924 19.8185 21.4437V26.1888H14.1922V21.4437C14.1929 19.8917 15.4537 18.6309 17.0057 18.6309Z" fill="#2276A8"/>
<path d="M17.0057 18.6348C18.5548 18.6348 19.8142 19.8942 19.8142 21.4433V26.1835H14.1978V21.4433C14.1971 19.8942 15.4565 18.6348 17.0057 18.6348Z" fill="#2276A9"/>
<path d="M17.0057 18.6396C18.552 18.6396 19.8092 19.8969 19.8092 21.4432V26.1784H14.2021V21.4432C14.2021 19.8969 15.4594 18.6396 17.0057 18.6396Z" fill="#2277AA"/>
<path d="M17.0057 18.6455C18.5491 18.6455 19.8043 19.9 19.8043 21.4441V26.1744H14.207V21.4441C14.207 19.9007 15.4622 18.6455 17.0057 18.6455Z" fill="#2278AB"/>
<path d="M17.0057 18.6504C18.547 18.6504 19.7993 19.9027 19.7993 21.4441V26.1693H14.212V21.4441C14.212 19.9027 15.4643 18.6504 17.0057 18.6504Z" fill="#2378AC"/>
<path d="M17.0057 18.6553C18.5442 18.6553 19.7944 19.9055 19.7944 21.444V26.1643H14.217V21.444C14.217 19.9055 15.4672 18.6553 17.0057 18.6553Z" fill="#2379AD"/>
<path d="M17.0057 18.6602C18.5413 18.6602 19.7894 19.9082 19.7894 21.4439V26.1593H14.2212V21.4439C14.2219 19.9082 15.47 18.6602 17.0057 18.6602Z" fill="#237AAE"/>
<path d="M17.0057 18.665C18.5385 18.665 19.7845 19.911 19.7845 21.4438V26.155H14.2262V21.4438C14.2269 19.911 15.4728 18.665 17.0057 18.665Z" fill="#237AAF"/>
<path d="M17.0057 18.6699C18.5357 18.6699 19.7802 19.9138 19.7802 21.4445V26.1506H14.2318V21.4445C14.2311 19.9138 15.4757 18.6699 17.0057 18.6699Z" fill="#237BB0"/>
<path d="M17.0057 18.6738C18.5335 18.6738 19.7753 19.9155 19.7753 21.4434V26.1446H14.2361V21.4434C14.2361 19.9162 15.4778 18.6738 17.0057 18.6738Z" fill="#247CB1"/>
<path d="M17.0057 18.6787C18.5307 18.6787 19.7703 19.9183 19.7703 21.4433V26.1396H14.241V21.4433C14.241 19.9183 15.4806 18.6787 17.0057 18.6787Z" fill="#247CB2"/>
<path d="M17.0057 18.6836C18.5279 18.6836 19.7653 19.9211 19.7653 21.4433V26.1346H14.246V21.4433C14.246 19.9211 15.4835 18.6836 17.0057 18.6836Z" fill="#247DB3"/>
<path d="M17.0057 18.6895C18.525 18.6895 19.7604 19.9248 19.7604 21.4442V26.1305H14.251V21.4442C14.251 19.9248 15.4863 18.6895 17.0057 18.6895Z" fill="#247EB4"/>
<path d="M17.0057 18.6943C18.5222 18.6943 19.7554 19.9275 19.7554 21.4441V26.1255H14.2552V21.4441C14.2559 19.9275 15.4891 18.6943 17.0057 18.6943Z" fill="#247FB4"/>
<path d="M17.0057 18.6992C18.5201 18.6992 19.7505 19.9303 19.7505 21.444V26.1211H14.2602V21.444C14.2609 19.9303 15.4912 18.6992 17.0057 18.6992Z" fill="#247FB5"/>
<path d="M17.0057 18.7041C18.5172 18.7041 19.7462 19.9331 19.7462 21.4446V26.1168H14.2658V21.4446C14.2651 19.9324 15.4941 18.7041 17.0057 18.7041Z" fill="#2580B6"/>
<path d="M17.0057 18.708C18.5144 18.708 19.7413 19.9348 19.7413 21.4436V26.1108H14.2708V21.4436C14.2701 19.9348 15.4969 18.708 17.0057 18.708Z" fill="#2581B7"/>
<path d="M17.0057 18.7129C18.5116 18.7129 19.7363 19.9376 19.7363 21.4435V26.1058H14.275V21.4435C14.275 19.9376 15.4997 18.7129 17.0057 18.7129Z" fill="#2581B8"/>
<path d="M17.0057 18.7178C18.5087 18.7178 19.7313 19.9404 19.7313 21.4434V26.1007H14.28V21.4434C14.28 19.9404 15.5026 18.7178 17.0057 18.7178Z" fill="#2582B9"/>
<path d="M17.0057 18.7227C18.5066 18.7227 19.7264 19.9431 19.7264 21.4434V26.0957H14.285V21.4434C14.285 19.9431 15.5047 18.7227 17.0057 18.7227Z" fill="#2583BA"/>
<path d="M17.0057 18.7275C18.5038 18.7275 19.7214 19.9459 19.7214 21.4433V26.0907H14.2892V21.4433C14.2899 19.9452 15.5075 18.7275 17.0057 18.7275Z" fill="#2683BB"/>
<path d="M17.0057 18.7324C18.501 18.7324 19.7165 19.9479 19.7165 21.4432V26.0863H14.2942V21.4432C14.2949 19.9479 15.5104 18.7324 17.0057 18.7324Z" fill="#2684BC"/>
<path d="M17.0057 18.7383C18.4981 18.7383 19.7122 19.9517 19.7122 21.4448V26.083H14.2998V21.4448C14.2991 19.9517 15.5132 18.7383 17.0057 18.7383Z" fill="#2685BD"/>
<path d="M17.0057 18.7422C18.4953 18.7422 19.7072 19.9534 19.7072 21.4438V26.077H14.3048V21.4438C14.3041 19.9541 15.516 18.7422 17.0057 18.7422Z" fill="#2685BE"/>
<path d="M17.0057 18.7471C18.4932 18.7471 19.7023 19.9562 19.7023 21.4437V26.0719H14.309V21.4437C14.309 19.9569 15.5182 18.7471 17.0057 18.7471Z" fill="#2686BF"/>
<path d="M17.0057 18.752C18.4903 18.752 19.6973 19.959 19.6973 21.4436V26.0669H14.314V21.4436C14.314 19.959 15.521 18.752 17.0057 18.752Z" fill="#2787C0"/>
<path d="M17.0057 18.7568C18.4875 18.7568 19.6924 19.9617 19.6924 21.4435V26.0619H14.319V21.4435C14.319 19.9617 15.5238 18.7568 17.0057 18.7568Z" fill="#2787C1"/>
<path d="M19.6874 26.0578V21.4444C19.6874 19.9654 18.4847 18.7627 17.0057 18.7627C15.5267 18.7627 14.3239 19.9654 14.3239 21.4444V26.0578H19.6874Z" fill="#2788C2"/>
</g>
<path d="M17.362 21.3135H16.6501V27.0439H17.362V21.3135Z" fill="#162433"/>
<path d="M20.6479 22.0273V21.3154H13.3925V22.0273H20.6479Z" fill="#162433"/>
<path d="M17.0057 16.3607C19.0634 16.3607 20.7315 14.6624 20.7315 12.5675C20.7315 10.4727 19.0634 8.77441 17.0057 8.77441C14.9479 8.77441 13.2798 10.4727 13.2798 12.5675C13.2798 14.6624 14.9479 16.3607 17.0057 16.3607Z" fill="url(#paint21_radial_542_27301)"/>
<path d="M18.5477 13.3298C18.5477 13.0854 18.4712 12.8637 18.3338 12.7036C18.1815 12.528 17.952 12.4132 17.4179 12.2531C16.8682 12.093 16.7917 12.0697 16.6848 12.0017C16.5856 11.9485 16.5325 11.8487 16.5325 11.7417C16.5325 11.5278 16.7464 11.3677 17.0361 11.3677C17.3875 11.3677 17.5709 11.5278 17.6162 11.872H18.5243C18.4811 11.2551 18.1199 10.8527 17.5171 10.7189V10.1338H16.5622V10.7274C15.9729 10.8726 15.6003 11.2827 15.6003 11.8423C15.6003 12.1015 15.6917 12.3381 15.8518 12.4989C15.997 12.6434 16.2031 12.7433 16.5998 12.8651C17.2486 13.0557 17.2486 13.0557 17.3634 13.1095C17.5468 13.186 17.6077 13.2625 17.6077 13.3999C17.6077 13.6365 17.3945 13.7895 17.0354 13.7895C16.5849 13.7895 16.3788 13.6138 16.3483 13.186H15.4629C15.4629 13.895 15.8405 14.3207 16.5622 14.4518V15.0695H17.5171V14.4567C18.1723 14.3335 18.5477 13.9361 18.5477 13.3298Z" fill="#9C9690"/>
<defs>
<linearGradient id="paint0_linear_542_27301" x1="17.0142" y1="26.7443" x2="17.0142" y2="14.7175" gradientUnits="userSpaceOnUse">
<stop stop-color="#949494"/>
<stop offset="0.161" stop-color="#80807F"/>
<stop offset="0.537" stop-color="#555553"/>
<stop offset="0.829" stop-color="#3A3A37"/>
<stop offset="1" stop-color="#30302D"/>
</linearGradient>
<linearGradient id="paint1_linear_542_27301" x1="17.056" y1="30.0606" x2="17.056" y2="28.0496" gradientUnits="userSpaceOnUse">
<stop offset="0.131" stop-color="#6A665E"/>
<stop offset="0.226" stop-color="#757169"/>
<stop offset="0.393" stop-color="#938F86"/>
<stop offset="0.613" stop-color="#C4BEB5"/>
<stop offset="0.7" stop-color="#D9D3CA"/>
<stop offset="0.812" stop-color="#E2DED5"/>
<stop offset="1" stop-color="#FAF8F2"/>
</linearGradient>
<linearGradient id="paint2_linear_542_27301" x1="17.056" y1="28.8589" x2="17.056" y2="26.9535" gradientUnits="userSpaceOnUse">
<stop offset="0.131" stop-color="#6A665E"/>
<stop offset="0.226" stop-color="#757169"/>
<stop offset="0.393" stop-color="#938F86"/>
<stop offset="0.613" stop-color="#C4BEB5"/>
<stop offset="0.7" stop-color="#D9D3CA"/>
<stop offset="0.812" stop-color="#E2DED5"/>
<stop offset="1" stop-color="#FAF8F2"/>
</linearGradient>
<linearGradient id="paint3_linear_542_27301" x1="6.09875" y1="14.3085" x2="11.6804" y2="14.3085" gradientUnits="userSpaceOnUse">
<stop stop-color="#6A665E"/>
<stop offset="0.112" stop-color="#89857C"/>
<stop offset="0.271" stop-color="#B0ABA2"/>
<stop offset="0.399" stop-color="#C8C2B9"/>
<stop offset="0.478" stop-color="#D1CBC2"/>
<stop offset="0.571" stop-color="#CCC6BD"/>
<stop offset="0.685" stop-color="#BDB7AE"/>
<stop offset="0.811" stop-color="#A49F96"/>
<stop offset="0.944" stop-color="#817D75"/>
<stop offset="1" stop-color="#706C64"/>
</linearGradient>
<linearGradient id="paint4_linear_542_27301" x1="8.88958" y1="13.5399" x2="8.88958" y2="14.9445" gradientUnits="userSpaceOnUse">
<stop offset="0.266" stop-color="#6A665E" stop-opacity="0.78"/>
<stop offset="0.437" stop-color="#89857C" stop-opacity="0.598"/>
<stop offset="0.683" stop-color="#B0ABA2" stop-opacity="0.337"/>
<stop offset="0.879" stop-color="#C8C2B9" stop-opacity="0.129"/>
<stop offset="1" stop-color="#D1CBC2" stop-opacity="0"/>
</linearGradient>
<linearGradient id="paint5_linear_542_27301" x1="6.09875" y1="26.4842" x2="11.6804" y2="26.4842" gradientUnits="userSpaceOnUse">
<stop stop-color="#6A665E"/>
<stop offset="0.112" stop-color="#89857C"/>
<stop offset="0.271" stop-color="#B0ABA2"/>
<stop offset="0.399" stop-color="#C8C2B9"/>
<stop offset="0.478" stop-color="#D1CBC2"/>
<stop offset="0.571" stop-color="#CCC6BD"/>
<stop offset="0.685" stop-color="#BDB7AE"/>
<stop offset="0.811" stop-color="#A49F96"/>
<stop offset="0.944" stop-color="#817D75"/>
<stop offset="1" stop-color="#706C64"/>
</linearGradient>
<linearGradient id="paint6_linear_542_27301" x1="22.4088" y1="26.4904" x2="27.9905" y2="26.4904" gradientUnits="userSpaceOnUse">
<stop stop-color="#6A665E"/>
<stop offset="0.112" stop-color="#89857C"/>
<stop offset="0.271" stop-color="#B0ABA2"/>
<stop offset="0.399" stop-color="#C8C2B9"/>
<stop offset="0.478" stop-color="#D1CBC2"/>
<stop offset="0.571" stop-color="#CCC6BD"/>
<stop offset="0.685" stop-color="#BDB7AE"/>
<stop offset="0.811" stop-color="#A49F96"/>
<stop offset="0.944" stop-color="#817D75"/>
<stop offset="1" stop-color="#706C64"/>
</linearGradient>
<linearGradient id="paint7_linear_542_27301" x1="7.23492" y1="20.3997" x2="10.5435" y2="20.3997" gradientUnits="userSpaceOnUse">
<stop stop-color="#6A665E"/>
<stop offset="0.112" stop-color="#89857C"/>
<stop offset="0.271" stop-color="#B0ABA2"/>
<stop offset="0.399" stop-color="#C8C2B9"/>
<stop offset="0.478" stop-color="#D1CBC2"/>
<stop offset="0.571" stop-color="#CCC6BD"/>
<stop offset="0.685" stop-color="#BDB7AE"/>
<stop offset="0.811" stop-color="#A49F96"/>
<stop offset="0.944" stop-color="#817D75"/>
<stop offset="1" stop-color="#706C64"/>
</linearGradient>
<linearGradient id="paint8_linear_542_27301" x1="22.4088" y1="14.3085" x2="27.9905" y2="14.3085" gradientUnits="userSpaceOnUse">
<stop stop-color="#6A665E"/>
<stop offset="0.112" stop-color="#89857C"/>
<stop offset="0.271" stop-color="#B0ABA2"/>
<stop offset="0.399" stop-color="#C8C2B9"/>
<stop offset="0.478" stop-color="#D1CBC2"/>
<stop offset="0.571" stop-color="#CCC6BD"/>
<stop offset="0.685" stop-color="#BDB7AE"/>
<stop offset="0.811" stop-color="#A49F96"/>
<stop offset="0.944" stop-color="#817D75"/>
<stop offset="1" stop-color="#706C64"/>
</linearGradient>
<linearGradient id="paint9_linear_542_27301" x1="25.1997" y1="13.5409" x2="25.1997" y2="14.9455" gradientUnits="userSpaceOnUse">
<stop offset="0.266" stop-color="#6A665E" stop-opacity="0.78"/>
<stop offset="0.437" stop-color="#89857C" stop-opacity="0.598"/>
<stop offset="0.683" stop-color="#B0ABA2" stop-opacity="0.337"/>
<stop offset="0.879" stop-color="#C8C2B9" stop-opacity="0.129"/>
<stop offset="1" stop-color="#D1CBC2" stop-opacity="0"/>
</linearGradient>
<linearGradient id="paint10_linear_542_27301" x1="23.545" y1="20.3997" x2="26.8543" y2="20.3997" gradientUnits="userSpaceOnUse">
<stop stop-color="#6A665E"/>
<stop offset="0.112" stop-color="#89857C"/>
<stop offset="0.271" stop-color="#B0ABA2"/>
<stop offset="0.399" stop-color="#C8C2B9"/>
<stop offset="0.478" stop-color="#D1CBC2"/>
<stop offset="0.571" stop-color="#CCC6BD"/>
<stop offset="0.685" stop-color="#BDB7AE"/>
<stop offset="0.811" stop-color="#A49F96"/>
<stop offset="0.944" stop-color="#817D75"/>
<stop offset="1" stop-color="#706C64"/>
</linearGradient>
<linearGradient id="paint11_linear_542_27301" x1="17.0404" y1="10.9867" x2="17.0404" y2="13.7372" gradientUnits="userSpaceOnUse">
<stop offset="0.131" stop-color="#6A665E"/>
<stop offset="0.24" stop-color="#757169"/>
<stop offset="0.434" stop-color="#938F86"/>
<stop offset="0.687" stop-color="#C4BEB5"/>
<stop offset="0.788" stop-color="#D9D3CA"/>
<stop offset="0.835" stop-color="#D9D3CA"/>
</linearGradient>
<linearGradient id="paint12_linear_542_27301" x1="6.89634" y1="11.7722" x2="6.93317" y2="13.633" gradientUnits="userSpaceOnUse">
<stop offset="0.163" stop-color="#6A665E"/>
<stop offset="0.275" stop-color="#757169"/>
<stop offset="0.474" stop-color="#938F86"/>
<stop offset="0.736" stop-color="#C4BEB5"/>
<stop offset="0.839" stop-color="#D9D3CA"/>
<stop offset="0.899" stop-color="#E2DED5"/>
<stop offset="1" stop-color="#FAF8F2"/>
</linearGradient>
<linearGradient id="paint13_linear_542_27301" x1="10.2885" y1="11.7722" x2="10.3261" y2="13.633" gradientUnits="userSpaceOnUse">
<stop offset="0.163" stop-color="#6A665E"/>
<stop offset="0.275" stop-color="#757169"/>
<stop offset="0.474" stop-color="#938F86"/>
<stop offset="0.736" stop-color="#C4BEB5"/>
<stop offset="0.839" stop-color="#D9D3CA"/>
<stop offset="0.899" stop-color="#E2DED5"/>
<stop offset="1" stop-color="#FAF8F2"/>
</linearGradient>
<linearGradient id="paint14_linear_542_27301" x1="13.6815" y1="11.7722" x2="13.7183" y2="13.633" gradientUnits="userSpaceOnUse">
<stop offset="0.163" stop-color="#6A665E"/>
<stop offset="0.275" stop-color="#757169"/>
<stop offset="0.474" stop-color="#938F86"/>
<stop offset="0.736" stop-color="#C4BEB5"/>
<stop offset="0.839" stop-color="#D9D3CA"/>
<stop offset="0.899" stop-color="#E2DED5"/>
<stop offset="1" stop-color="#FAF8F2"/>
</linearGradient>
<linearGradient id="paint15_linear_542_27301" x1="17.0737" y1="11.7722" x2="17.1112" y2="13.633" gradientUnits="userSpaceOnUse">
<stop offset="0.163" stop-color="#6A665E"/>
<stop offset="0.275" stop-color="#757169"/>
<stop offset="0.474" stop-color="#938F86"/>
<stop offset="0.736" stop-color="#C4BEB5"/>
<stop offset="0.839" stop-color="#D9D3CA"/>
<stop offset="0.899" stop-color="#E2DED5"/>
<stop offset="1" stop-color="#FAF8F2"/>
</linearGradient>
<linearGradient id="paint16_linear_542_27301" x1="20.4666" y1="11.7722" x2="20.5034" y2="13.633" gradientUnits="userSpaceOnUse">
<stop offset="0.163" stop-color="#6A665E"/>
<stop offset="0.275" stop-color="#757169"/>
<stop offset="0.474" stop-color="#938F86"/>
<stop offset="0.736" stop-color="#C4BEB5"/>
<stop offset="0.839" stop-color="#D9D3CA"/>
<stop offset="0.899" stop-color="#E2DED5"/>
<stop offset="1" stop-color="#FAF8F2"/>
</linearGradient>
<linearGradient id="paint17_linear_542_27301" x1="23.8588" y1="11.7722" x2="23.8963" y2="13.633" gradientUnits="userSpaceOnUse">
<stop offset="0.163" stop-color="#6A665E"/>
<stop offset="0.275" stop-color="#757169"/>
<stop offset="0.474" stop-color="#938F86"/>
<stop offset="0.736" stop-color="#C4BEB5"/>
<stop offset="0.839" stop-color="#D9D3CA"/>
<stop offset="0.899" stop-color="#E2DED5"/>
<stop offset="1" stop-color="#FAF8F2"/>
</linearGradient>
<linearGradient id="paint18_linear_542_27301" x1="27.251" y1="11.7722" x2="27.2885" y2="13.633" gradientUnits="userSpaceOnUse">
<stop offset="0.163" stop-color="#6A665E"/>
<stop offset="0.275" stop-color="#757169"/>
<stop offset="0.474" stop-color="#938F86"/>
<stop offset="0.736" stop-color="#C4BEB5"/>
<stop offset="0.839" stop-color="#D9D3CA"/>
<stop offset="0.899" stop-color="#E2DED5"/>
<stop offset="1" stop-color="#FAF8F2"/>
</linearGradient>
<radialGradient id="paint19_radial_542_27301" cx="0" cy="0" r="1" gradientUnits="userSpaceOnUse" gradientTransform="translate(17.097 5.24162) scale(21.4653 12.6366)">
<stop stop-color="#D1CBC2"/>
<stop offset="0.266" stop-color="#CEC8BF"/>
<stop offset="0.453" stop-color="#C5BFB6"/>
<stop offset="0.615" stop-color="#B5B0A7"/>
<stop offset="0.763" stop-color="#A09B92"/>
<stop offset="0.9" stop-color="#847F77"/>
<stop offset="1" stop-color="#6A665E"/>
</radialGradient>
<linearGradient id="paint20_linear_542_27301" x1="17.0057" y1="27.0339" x2="17.0057" y2="17.7575" gradientUnits="userSpaceOnUse">
<stop offset="0.005" stop-color="#2688C7"/>
<stop offset="0.166" stop-color="#1E6A9C"/>
<stop offset="0.353" stop-color="#164D71"/>
<stop offset="0.535" stop-color="#0F3550"/>
<stop offset="0.708" stop-color="#0B2538"/>
<stop offset="0.867" stop-color="#081A29"/>
<stop offset="1" stop-color="#071724"/>
</linearGradient>
<radialGradient id="paint21_radial_542_27301" cx="0" cy="0" r="1" gradientUnits="userSpaceOnUse" gradientTransform="translate(17.0057 12.5681) scale(4.44125 4.52208)">
<stop offset="0.005" stop-color="#E8E6E1"/>
<stop offset="0.133" stop-color="#E5E2DC"/>
<stop offset="0.664" stop-color="#D9D3CA"/>
<stop offset="0.693" stop-color="#CEC9C0"/>
<stop offset="0.903" stop-color="#86827A"/>
<stop offset="1" stop-color="#6A665E"/>
</radialGradient>
</defs>
</svg>
