<svg width="68" height="68" viewBox="0 0 68 68" fill="none" xmlns="http://www.w3.org/2000/svg">
<g id="customer" clip-path="url(#clip0_46_87)">
<path id="Vector" d="M67.0646 33.83C67.0646 52.0488 52.2988 66.8146 34.08 66.8146C15.8663 66.8146 1.09537 52.0488 1.09537 33.83C1.09537 15.6111 15.8663 0.845337 34.08 0.845337C41.3418 0.845337 48.0521 3.19034 53.4997 7.16395C54.4711 7.86852 55.402 8.62735 56.2879 9.4368C62.9106 15.472 67.0646 24.1613 67.0646 33.83Z" fill="#66B071"/>
<path id="Vector_2" d="M59.424 54.9463C53.5641 61.971 44.8335 66.5218 35.036 66.8001C33.9331 66.7692 32.8508 66.6816 31.7839 66.5476C31.0521 66.4548 30.3306 66.3363 29.6142 66.192C29.3153 66.1353 29.0112 66.0683 28.7123 66.0013C22.4967 64.5994 16.9512 61.4401 12.6116 57.0748V55.2349C12.6116 51.1994 14.9103 47.5196 18.5386 45.7518L25.187 42.5152L27.7485 41.2628L29.6142 38.8199V36.7481C28.0886 35.0164 26.8929 32.6714 26.1869 29.9656C26.1405 29.8677 26.0941 29.7749 26.0426 29.677C25.9446 29.6873 25.8467 29.7079 25.7436 29.7079C24.3366 29.7079 23.1925 28.5638 23.1925 27.1722C23.1922 26.7745 23.2859 26.3823 23.466 26.0277C23.646 25.673 23.9072 25.3659 24.2284 25.1313C23.6409 23.1728 23.3162 21.2504 23.3162 19.5858C23.3162 12.5868 28.9906 6.9176 35.9895 6.9176C42.9884 6.9176 48.6576 12.5868 48.6576 19.5858C48.6576 21.2401 48.3381 23.1419 47.7609 25.0849C48.0961 25.3199 48.3695 25.6324 48.558 25.9958C48.7464 26.3593 48.8443 26.7628 48.8432 27.1722C48.8432 28.5638 47.7145 29.7079 46.3075 29.7079C46.1786 29.7079 46.0549 29.6873 45.9364 29.6718C45.89 29.7594 45.8488 29.8471 45.8024 29.9347C45.1066 32.625 43.9316 34.9545 42.4215 36.6862V38.8199L44.2872 41.2628L46.8435 42.5101L53.5023 45.7518C55.2347 46.5977 56.7024 47.9018 57.7463 49.5226C58.7902 51.1435 59.3704 53.0191 59.424 54.9463ZM5.72662 37.8247H1.34636C1.38347 38.1324 1.418 38.4411 1.46387 38.7462H5.72662C5.98019 38.7462 6.18737 38.539 6.18737 38.2855C6.18737 38.0319 5.98019 37.8247 5.72662 37.8247ZM61.6154 24.6205L65.754 24.6211C65.6643 24.3123 65.5731 24.0047 65.4746 23.6996H61.6154C61.4934 23.6998 61.3765 23.7484 61.2901 23.8346C61.2038 23.9209 61.1551 24.0378 61.1547 24.1598C61.1547 24.4134 61.3624 24.6205 61.6154 24.6205Z" fill="#479E60"/>
<path id="Vector_3" d="M60.2012 24.6211C60.4557 24.6211 60.662 24.4148 60.662 24.1603C60.662 23.9059 60.4557 23.6996 60.2012 23.6996C59.9468 23.6996 59.7405 23.9059 59.7405 24.1603C59.7405 24.4148 59.9468 24.6211 60.2012 24.6211Z" fill="#479E60"/>
<path id="Vector_4" d="M61.5603 45.0087C61.438 45.0087 61.3206 45.0573 61.2341 45.1438C61.1476 45.2303 61.099 45.3476 61.099 45.4699C61.099 45.5923 61.1476 45.7096 61.2341 45.7961C61.3206 45.8826 61.438 45.9312 61.5603 45.9312H64.765C64.8861 45.6246 65.0082 45.3189 65.1201 45.0087H61.5603ZM29.2488 6.06724C29.2488 6.00666 29.2607 5.94668 29.2839 5.89072C29.3071 5.83476 29.341 5.78391 29.3839 5.74107C29.4267 5.69824 29.4776 5.66426 29.5335 5.64108C29.5895 5.6179 29.6495 5.60597 29.71 5.60597C29.7706 5.60597 29.8306 5.6179 29.8866 5.64108C29.9425 5.66426 29.9934 5.69824 30.0362 5.74107C30.079 5.78391 30.113 5.83476 30.1362 5.89072C30.1594 5.94668 30.1713 6.00666 30.1713 6.06724C30.1713 6.18958 30.1227 6.3069 30.0362 6.39341C29.9497 6.47991 29.8324 6.52851 29.71 6.52851C29.5877 6.52851 29.4704 6.47991 29.3839 6.39341C29.2974 6.3069 29.2488 6.18958 29.2488 6.06724ZM28.1613 5.60339H24.7644C24.6421 5.60339 24.5247 5.65199 24.4382 5.7385C24.3517 5.825 24.3031 5.94233 24.3031 6.06466C24.3031 6.187 24.3517 6.30432 24.4382 6.39083C24.5247 6.47733 24.6421 6.52593 24.7644 6.52593H28.1608C28.4133 6.52593 28.6246 6.31978 28.6246 6.06724C28.6246 5.8147 28.4133 5.60339 28.1613 5.60339ZM14.6964 49.2719C14.6964 49.1496 14.745 49.0323 14.8315 48.9458C14.918 48.8593 15.0353 48.8107 15.1576 48.8107C15.28 48.8107 15.3973 48.8593 15.4838 48.9458C15.5703 49.0323 15.6189 49.1496 15.6189 49.2719C15.6189 49.3943 15.5703 49.5116 15.4838 49.5981C15.3973 49.6846 15.28 49.7332 15.1576 49.7332C15.0353 49.7332 14.918 49.6846 14.8315 49.5981C14.745 49.5116 14.6964 49.3943 14.6964 49.2719ZM6.92849 38.2881C6.92849 38.1657 6.97709 38.0484 7.0636 37.9619C7.1501 37.8754 7.26743 37.8268 7.38976 37.8268C7.5121 37.8268 7.62942 37.8754 7.71593 37.9619C7.80243 38.0484 7.85103 38.1657 7.85103 38.2881C7.85103 38.4104 7.80243 38.5277 7.71593 38.6142C7.62942 38.7007 7.5121 38.7493 7.38976 38.7493C7.26743 38.7493 7.1501 38.7007 7.0636 38.6142C6.97709 38.5277 6.92849 38.4104 6.92849 38.2881ZM13.6089 48.8086H10.212C10.0897 48.8086 9.97235 48.8572 9.88584 48.9437C9.79934 49.0302 9.75074 49.1475 9.75074 49.2699C9.75074 49.3922 9.79934 49.5095 9.88584 49.596C9.97235 49.6825 10.0897 49.7311 10.212 49.7311H13.6084C13.8609 49.7311 14.0722 49.525 14.0722 49.2724C14.0722 49.0199 13.8609 48.8086 13.6089 48.8086ZM12.2236 23.0646C12.2236 22.9423 12.2722 22.825 12.3587 22.7385C12.4452 22.652 12.5625 22.6034 12.6848 22.6034C12.8072 22.6034 12.9245 22.652 13.011 22.7385C13.0975 22.825 13.1461 22.9423 13.1461 23.0646C13.1461 23.187 13.0975 23.3043 13.011 23.3908C12.9245 23.4773 12.8072 23.5259 12.6848 23.5259C12.5625 23.5259 12.4452 23.4773 12.3587 23.3908C12.2722 23.3043 12.2236 23.187 12.2236 23.0646ZM11.1361 22.6008H7.73868C7.6781 22.6008 7.61812 22.6127 7.56216 22.6359C7.50619 22.6591 7.45534 22.693 7.41251 22.7359C7.36968 22.7787 7.3357 22.8296 7.31252 22.8855C7.28934 22.9415 7.27741 23.0015 7.27741 23.062C7.27741 23.1226 7.28934 23.1826 7.31252 23.2386C7.3357 23.2945 7.36968 23.3454 7.41251 23.3882C7.45534 23.431 7.50619 23.465 7.56216 23.4882C7.61812 23.5114 7.6781 23.5233 7.73868 23.5233H11.1351C11.3876 23.5233 11.5989 23.3172 11.5989 23.0646C11.5989 22.8121 11.3876 22.6008 11.1351 22.6008H11.1361ZM16.0013 22.6008H14.7649C14.7043 22.6008 14.6444 22.6127 14.5884 22.6359C14.5324 22.6591 14.4816 22.693 14.4387 22.7359C14.3959 22.7787 14.3619 22.8296 14.3388 22.8855C14.3156 22.9415 14.3036 23.0015 14.3036 23.062C14.3036 23.1226 14.3156 23.1826 14.3388 23.2386C14.3619 23.2945 14.3959 23.3454 14.4387 23.3882C14.4816 23.431 14.5324 23.465 14.5884 23.4882C14.6444 23.5114 14.7043 23.5233 14.7649 23.5233H16.0008C16.2533 23.5233 16.4647 23.3172 16.4647 23.0646C16.4647 22.8121 16.2539 22.6008 16.0013 22.6008ZM46.9759 9.32447C46.9759 9.20213 47.0245 9.08481 47.111 8.9983C47.1975 8.9118 47.3149 8.8632 47.4372 8.8632C47.5595 8.8632 47.6769 8.9118 47.7634 8.9983C47.8499 9.08481 47.8985 9.20213 47.8985 9.32447C47.8985 9.44681 47.8499 9.56413 47.7634 9.65064C47.6769 9.73714 47.5595 9.78574 47.4372 9.78574C47.3149 9.78574 47.1975 9.73714 47.111 9.65064C47.0245 9.56413 46.9759 9.44681 46.9759 9.32447ZM45.8885 8.86062H39.3998C39.2774 8.86062 39.1601 8.90922 39.0736 8.99573C38.9871 9.08223 38.9385 9.19956 38.9385 9.32189C38.9385 9.44423 38.9871 9.56156 39.0736 9.64806C39.1601 9.73456 39.2774 9.78316 39.3998 9.78316H45.8885C46.141 9.78316 46.3523 9.57701 46.3523 9.32447C46.3523 9.07193 46.141 8.86062 45.8885 8.86062ZM60.378 36.4626C60.378 36.3402 60.4266 36.2229 60.5131 36.1364C60.5996 36.0499 60.7169 36.0013 60.8393 36.0013C60.9616 36.0013 61.0789 36.0499 61.1654 36.1364C61.2519 36.2229 61.3005 36.3402 61.3005 36.4626C61.3005 36.5849 61.2519 36.7022 61.1654 36.7887C61.0789 36.8752 60.9616 36.9238 60.8393 36.9238C60.7169 36.9238 60.5996 36.8752 60.5131 36.7887C60.4266 36.7022 60.378 36.5849 60.378 36.4626ZM59.2905 35.9987H52.8013C52.679 35.9987 52.5617 36.0473 52.4752 36.1338C52.3887 36.2203 52.3401 36.3376 52.3401 36.46C52.3401 36.5823 52.3887 36.6996 52.4752 36.7862C52.5617 36.8727 52.679 36.9213 52.8013 36.9213H59.29C59.5431 36.9213 59.7544 36.7151 59.7544 36.4626C59.7544 36.21 59.5431 35.9987 59.2905 35.9987ZM28.7488 37.8273C28.7488 37.705 28.7974 37.5876 28.8839 37.5011C28.9705 37.4146 29.0878 37.366 29.2101 37.366C29.3325 37.366 29.4498 37.4146 29.5363 37.5011C29.6228 37.5876 29.6714 37.705 29.6714 37.8273C29.6714 37.9496 29.6228 38.067 29.5363 38.1535C29.4498 38.24 29.3325 38.2886 29.2101 38.2886C29.0878 38.2886 28.9705 38.24 28.8839 38.1535C28.7974 38.067 28.7488 37.9496 28.7488 37.8273ZM27.6614 37.3635H21.1722C21.0498 37.3635 20.9325 37.4121 20.846 37.4986C20.7595 37.5851 20.7109 37.7024 20.7109 37.8247C20.7109 37.9471 20.7595 38.0644 20.846 38.1509C20.9325 38.2374 21.0498 38.286 21.1722 38.286H27.6609C27.9139 38.286 28.1252 38.0798 28.1252 37.8273C28.1252 37.5748 27.9139 37.3635 27.6614 37.3635Z" fill="#479E60"/>
<path id="Vector_5" d="M57.4918 55.2339V57.0687C53.1523 61.4391 47.6016 64.5984 41.3861 66.0054C41.0872 66.0724 40.7882 66.1343 40.4893 66.191C39.7729 66.3353 39.0462 66.4538 38.3144 66.5466C36.928 66.7218 35.5158 66.8146 34.0831 66.8146C32.6452 66.8146 31.233 66.7218 29.8466 66.5466C29.1148 66.4538 28.3932 66.3353 27.6768 66.191C27.3779 66.1343 27.0738 66.0673 26.7749 66.0003C20.5594 64.5984 15.0138 61.4391 10.6743 57.0738V55.2339C10.6743 51.1984 12.9729 47.5186 16.6012 45.7508L23.2497 42.5142L27.6768 40.3547H40.4893L44.9062 42.509L51.5649 45.7508C53.3419 46.6177 54.8396 47.9663 55.8875 49.6429C56.9354 51.3195 57.4913 53.2567 57.4918 55.2339Z" fill="#EDEDED"/>
<path id="Vector_6" d="M32.5771 45.6416H33.0925V66.2194H32.5771V45.6416ZM13.8754 52.8518C13.7881 52.8518 13.7023 52.8296 13.626 52.7874C13.5497 52.7451 13.4853 52.6842 13.439 52.6103C13.3926 52.5364 13.3658 52.4519 13.361 52.3648C13.3562 52.2777 13.3736 52.1908 13.4115 52.1123C14.55 49.7609 16.4442 47.8592 18.7911 46.7115C18.8519 46.6819 18.918 46.6645 18.9856 46.6603C19.0532 46.6562 19.1209 46.6654 19.1849 46.6874C19.2489 46.7095 19.308 46.7439 19.3587 46.7888C19.4094 46.8336 19.4508 46.888 19.4804 46.9489C19.5101 47.0097 19.5275 47.0758 19.5316 47.1434C19.5358 47.211 19.5266 47.2787 19.5045 47.3427C19.4825 47.4067 19.4481 47.4657 19.4032 47.5164C19.3583 47.5672 19.3039 47.6085 19.2431 47.6382C17.104 48.684 15.3774 50.4171 14.3397 52.5601C14.2977 52.6476 14.2318 52.7213 14.1496 52.7729C14.0675 52.8246 13.9724 52.8519 13.8754 52.8518ZM12.7719 57.6825C12.6352 57.6825 12.5041 57.6282 12.4075 57.5316C12.3108 57.4349 12.2565 57.3038 12.2565 57.1671C12.2565 56.3436 12.3442 55.5195 12.5168 54.717C12.5303 54.6501 12.5569 54.5865 12.5951 54.5299C12.6334 54.4734 12.6825 54.425 12.7396 54.3876C12.7967 54.3502 12.8607 54.3245 12.9278 54.312C12.9949 54.2995 13.0638 54.3005 13.1306 54.3148C13.1973 54.3292 13.2605 54.3567 13.3166 54.3957C13.3726 54.4347 13.4203 54.4845 13.4569 54.5421C13.4936 54.5997 13.5184 54.664 13.53 54.7313C13.5416 54.7985 13.5397 54.8674 13.5244 54.934C13.3667 55.6679 13.2872 56.4165 13.2873 57.1671C13.2873 57.3038 13.233 57.4349 13.1364 57.5316C13.0397 57.6282 12.9086 57.6825 12.7719 57.6825Z" fill="white"/>
<path id="Vector_7" d="M57.4918 55.2339V57.0686C53.1523 61.4391 47.6016 64.5984 41.3861 66.0054C41.0872 66.0724 40.7882 66.1343 40.4893 66.191C39.7729 66.3353 39.0462 66.4538 38.3144 66.5466C36.928 66.7218 35.5158 66.8146 34.0831 66.8146C32.6452 66.8146 31.233 66.7218 29.8466 66.5466C29.1148 66.4538 28.3932 66.3353 27.6768 66.191C27.3779 66.1343 27.0738 66.0673 26.7749 66.0003C20.5594 64.5984 15.0138 61.4391 10.6743 57.0738V55.2339C10.6743 54.8473 10.6949 54.466 10.7362 54.0897C16.4105 60.6145 24.7701 64.753 34.0831 64.753C43.3909 64.753 51.7556 60.6145 57.43 54.0897C57.4712 54.466 57.4918 54.8473 57.4918 55.2339Z" fill="#DDDCE0"/>
<path id="Vector_8" d="M27.6763 32.6482V40.3553L34.0815 45.6416L40.4867 40.3553V32.6482H27.6763Z" fill="#F2B58C"/>
<path id="Vector_9" d="M40.4862 38.822C40.4862 38.822 36.826 39.6312 34.0815 45.6416C34.0815 45.6416 40.1873 46.8296 40.4867 49.0256C40.4867 49.0256 39.8554 44.0588 42.3509 41.2639L40.4862 38.822ZM27.6763 38.822C27.6763 38.822 31.3366 39.6312 34.0815 45.6416C34.0815 45.6416 27.9758 46.8296 27.6763 49.0256C27.6763 49.0256 28.3077 44.0588 25.8122 41.2639L27.6763 38.822Z" fill="white"/>
<path id="Vector_10" d="M46.7224 19.5863C46.7224 26.5842 41.0495 38.0607 34.0511 38.0607C27.0527 38.0607 21.3809 26.5842 21.3809 19.5863C21.3809 12.5873 27.0532 6.91553 34.0511 6.91553C41.049 6.91553 46.7224 12.5878 46.7224 19.5863Z" fill="#2F4867"/>
<path id="Vector_11" d="M46.9079 27.1702C46.9078 27.8433 46.6403 28.4889 46.1643 28.9648C45.6883 29.4408 45.0428 29.7083 44.3696 29.7084C42.9626 29.7084 41.8195 28.5653 41.8195 27.1702C41.8195 26.4937 42.0882 25.845 42.5664 25.3666C43.0446 24.8882 43.6932 24.6193 44.3696 24.619C45.7772 24.619 46.9079 25.7621 46.9079 27.1702ZM26.3435 27.1702C26.3434 27.8433 26.0759 28.4889 25.6 28.9648C25.124 29.4408 24.4784 29.7083 23.8053 29.7084C22.3978 29.7084 21.2552 28.5653 21.2552 27.1702C21.2552 26.4937 21.5238 25.845 22.002 25.3666C22.4802 24.8882 23.1288 24.6193 23.8053 24.619C25.2128 24.619 26.3435 25.7621 26.3435 27.1702Z" fill="#FFBF9C"/>
<path id="Vector_12" d="M44.5541 24.8917C44.3604 33.2589 39.7368 39.9615 34.0558 39.9615C28.2515 39.9615 23.5486 32.9677 23.5486 24.3453V24.3211C23.5502 23.0157 24.668 21.9895 25.9714 22.0555C28.2886 22.1735 31.2644 22.2153 33.0606 21.8091C34.198 21.5535 35.6885 20.8474 37.145 20.0383C39.6972 18.621 42.8817 19.911 43.7208 22.7075C43.9682 23.5321 44.247 24.2979 44.5541 24.8917Z" fill="#FFCEAB"/>
<path id="Vector_13" d="M34.0954 35.3905C33.5254 35.3899 32.9643 35.2483 32.4622 34.9782C32.422 34.9566 32.3864 34.9273 32.3575 34.892C32.3285 34.8566 32.3069 34.8159 32.2937 34.7722C32.2805 34.7285 32.2761 34.6826 32.2806 34.6372C32.2852 34.5917 32.2986 34.5476 32.3202 34.5074C32.3418 34.4672 32.3711 34.4316 32.4064 34.4027C32.4418 34.3738 32.4825 34.3521 32.5262 34.3389C32.5699 34.3257 32.6158 34.3213 32.6612 34.3258C32.7067 34.3304 32.7508 34.3438 32.791 34.3654C33.1116 34.5384 33.4634 34.6461 33.826 34.6821C34.1886 34.7181 34.5547 34.6818 34.9031 34.5752C35.252 34.4706 35.5767 34.2978 35.8585 34.0669C36.1402 33.836 36.3734 33.5516 36.5446 33.23C36.591 33.1546 36.6646 33.0997 36.7501 33.0766C36.8357 33.0535 36.9268 33.0639 37.005 33.1058C37.0831 33.1476 37.1423 33.2177 37.1705 33.3017C37.1988 33.3857 37.1939 33.4773 37.1568 33.5578C36.943 33.9601 36.6514 34.316 36.299 34.6048C35.9467 34.8937 35.5405 35.1097 35.1041 35.2405C34.7769 35.3398 34.4374 35.3904 34.0954 35.3905Z" fill="#FFBF9C"/>
<path id="Vector_14" d="M44.7495 18.7704V28.8333H44.2609C43.9194 28.833 43.5921 28.6972 43.3507 28.4557C43.1093 28.2142 42.9736 27.8868 42.9735 27.5453V18.7704H44.7495ZM23.4151 18.7704V28.8333H23.9032C24.2448 28.8333 24.5725 28.6976 24.8141 28.4561C25.0557 28.2145 25.1915 27.887 25.1917 27.5453V18.7704H23.4151ZM39.2276 26.8207C39.2271 27.1368 39.1013 27.4398 38.8777 27.6634C38.6542 27.8869 38.3512 28.0127 38.0351 28.0133C37.719 28.0126 37.4161 27.8867 37.1927 27.6632C36.9693 27.4397 36.8435 27.1367 36.843 26.8207C36.8435 26.5047 36.9693 26.2017 37.1927 25.9782C37.4161 25.7547 37.719 25.6288 38.0351 25.6281C38.3512 25.6286 38.6542 25.7545 38.8777 25.978C39.1013 26.2015 39.2271 26.5046 39.2276 26.8207ZM39.8879 24.8158C39.8879 24.9447 39.7848 25.0478 39.6559 25.0478H36.4142C36.2853 25.0478 36.1822 24.9447 36.1822 24.8158C36.1822 24.687 36.2853 24.5772 36.4142 24.5772H39.6559C39.7848 24.5772 39.8879 24.687 39.8879 24.8158ZM31.2603 26.8207C31.2598 27.1368 31.1339 27.4398 30.9104 27.6634C30.6869 27.8869 30.3838 28.0127 30.0677 28.0133C29.7515 28.0129 29.4483 27.8871 29.2247 27.6636C29.001 27.44 28.8751 27.1369 28.8746 26.8207C28.8751 26.5046 29.001 26.2015 29.2245 25.978C29.448 25.7545 29.7511 25.6286 30.0672 25.6281C30.3832 25.6288 30.6861 25.7547 30.9096 25.9782C31.133 26.2017 31.2587 26.5047 31.2593 26.8207H31.2603ZM31.92 24.8158C31.92 24.9447 31.8169 25.0478 31.6881 25.0478H28.4468C28.318 25.0478 28.2149 24.9447 28.2149 24.8158C28.2149 24.687 28.318 24.5772 28.4468 24.5772H31.6886C31.8174 24.5772 31.9205 24.687 31.9205 24.8158H31.92Z" fill="#2F4867"/>
<path id="Vector_15" d="M32.5957 30.8444C32.841 32.2045 35.2618 32.2045 35.5076 30.8444C34.5625 31.159 33.5408 31.159 32.5957 30.8444Z" fill="#FFBF9C"/>
<path id="Vector_16" d="M34.6186 48.1937C34.6186 48.4669 34.3969 48.6885 34.1289 48.6885C33.8558 48.6885 33.6393 48.4669 33.6393 48.1937C33.6393 48.0639 33.6909 47.9393 33.7827 47.8475C33.8746 47.7557 33.9991 47.7041 34.1289 47.7041C34.2588 47.7041 34.3833 47.7557 34.4752 47.8475C34.567 47.9393 34.6186 48.0639 34.6186 48.1937ZM34.6186 53.0378C34.6186 53.311 34.3969 53.5326 34.1289 53.5326C33.8558 53.5326 33.6393 53.311 33.6393 53.0378C33.6393 52.908 33.6909 52.7834 33.7827 52.6916C33.8746 52.5998 33.9991 52.5482 34.1289 52.5482C34.2588 52.5482 34.3833 52.5998 34.4752 52.6916C34.567 52.7834 34.6186 52.908 34.6186 53.0378ZM34.6186 57.8814C34.6186 58.1546 34.3969 58.3762 34.1289 58.3762C33.8558 58.3762 33.6393 58.1546 33.6393 57.8814C33.6393 57.7515 33.6909 57.627 33.7827 57.5352C33.8746 57.4434 33.9991 57.3918 34.1289 57.3918C34.2588 57.3918 34.3833 57.4434 34.4752 57.5352C34.567 57.627 34.6186 57.7515 34.6186 57.8814ZM34.6186 62.7255C34.6186 62.9987 34.3969 63.2203 34.1289 63.2203C33.8558 63.2203 33.6393 62.9987 33.6393 62.7255C33.6393 62.5956 33.6909 62.4711 33.7827 62.3793C33.8746 62.2875 33.9991 62.2359 34.1289 62.2359C34.2588 62.2359 34.3833 62.2875 34.4752 62.3793C34.567 62.4711 34.6186 62.5956 34.6186 62.7255Z" fill="white"/>
</g>
<defs>
<clipPath id="clip0_46_87">
<rect width="67" height="67" fill="white" transform="translate(0.579987 0.329956)"/>
</clipPath>
</defs>
</svg>
