<svg width="27" height="30" viewBox="0 0 27 30" fill="none" xmlns="http://www.w3.org/2000/svg">
<path d="M16.1247 8.6641V5.43825C16.1247 4.5827 15.8437 3.7622 15.3436 3.15723C14.8435 2.55227 14.1653 2.2124 13.458 2.2124H4.12467C3.41743 2.2124 2.73915 2.55227 2.23906 3.15723C1.73896 3.7622 1.45801 4.5827 1.45801 5.43825V24.7934C1.45801 25.6489 1.73896 26.4694 2.23906 27.0744C2.73915 27.6793 3.41743 28.0192 4.12467 28.0192H13.458C14.1653 28.0192 14.8435 27.6793 15.3436 27.0744C15.8437 26.4694 16.1247 25.6489 16.1247 24.7934V21.5675M9.45801 15.1158H25.458M25.458 15.1158L21.458 10.277M25.458 15.1158L21.458 19.9546" stroke="#E01A1A" stroke-width="2.5" stroke-linecap="round" stroke-linejoin="round"/>
</svg>
