<svg width="36" height="36" viewBox="0 0 36 36" fill="none" xmlns="http://www.w3.org/2000/svg">
<path d="M6 2.25H30V33.75H6V2.25Z" fill="#C5CAE9"/>
<path d="M6 8.25H30V9H6V8.25ZM6 27H30V27.75H6V27Z" fill="#9FA8DA"/>
<path d="M8.25 11.25H9.75V12.75H8.25V11.25ZM11.25 11.25H20.25V12.75H11.25V11.25ZM25.5 11.25H28.5V12.75H25.5V11.25ZM8.25 14.25H9.75V15.75H8.25V14.25ZM11.25 14.25H15.75V15.75H11.25V14.25ZM25.5 14.25H28.5V15.75H25.5V14.25ZM8.25 17.25H9.75V18.75H8.25V17.25ZM11.25 17.25H19.5V18.75H11.25V17.25ZM25.5 17.25H28.5V18.75H25.5V17.25ZM8.25 20.25H9.75V21.75H8.25V20.25ZM11.25 20.25H21V21.75H11.25V20.25ZM25.5 20.25H28.5V21.75H25.5V20.25ZM8.25 23.25H9.75V24.75H8.25V23.25ZM11.25 23.25H16.5V24.75H11.25V23.25ZM25.5 23.25H28.5V24.75H25.5V23.25Z" fill="#3949AB"/>
<path d="M11.25 4.5H25.5V6H11.25V4.5ZM25.5 30H28.5V31.5H25.5V30ZM16.5 30H23.25V31.5H16.5V30Z" fill="#3F51B5"/>
</svg>
