<svg width="42" height="42" viewBox="0 0 42 42" fill="none" xmlns="http://www.w3.org/2000/svg">
<path d="M29.4 4.7251C24.7685 4.7251 21 8.49355 21 13.1251C21 17.7566 24.7685 21.5251 29.4 21.5251C34.0316 21.5251 37.8 17.7566 37.8 13.1251C37.8 8.49355 34.0316 4.7251 29.4 4.7251ZM29.4 5.7751C33.453 5.7751 36.75 9.0721 36.75 13.1251C36.75 17.1781 33.453 20.4751 29.4 20.4751C25.347 20.4751 22.05 17.1781 22.05 13.1251C22.05 9.0721 25.347 5.7751 29.4 5.7751ZM29.0801 8.83076V9.51675C27.6794 9.63592 26.8345 10.4055 26.8345 11.5778C26.8345 12.5711 27.4562 13.2472 28.6033 13.5301L29.0801 13.6439V15.7604C28.3897 15.6858 27.9373 15.2884 27.8927 14.7319H26.6807C26.6854 15.9037 27.5991 16.6883 29.0791 16.7775V17.4194H29.7651V16.7734C31.2603 16.6495 32.1194 15.8795 32.1194 14.6478C32.1199 13.5994 31.5188 12.9587 30.2573 12.6657L29.7651 12.5611V10.5503C30.3609 10.6296 30.7778 11.0367 30.7925 11.548H31.9799C31.9552 10.4303 31.0912 9.6354 29.7651 9.51675V8.83076H29.0801ZM29.0801 10.5442V12.4166C28.4144 12.2774 28.0619 11.9499 28.0619 11.4732C28.0619 10.966 28.4895 10.5794 29.0801 10.5442ZM29.7651 13.7731C30.5499 13.927 30.9074 14.2442 30.9074 14.776C30.9074 15.3624 30.4906 15.725 29.7651 15.7696V13.7731ZM12.075 21.0001C11.5594 21.0001 11.0679 21.099 10.6149 21.2677C10.5992 21.27 10.6193 21.2601 10.5595 21.28L10.5728 21.2749C9.43855 21.6203 4.05955 23.1196 4.05955 23.1196C3.99083 23.1359 3.92611 23.1659 3.86926 23.2078C3.81241 23.2497 3.76459 23.3027 3.72869 23.3635C3.69278 23.4243 3.66951 23.4918 3.66027 23.5618C3.65103 23.6318 3.65602 23.703 3.67493 23.771C3.69384 23.8391 3.72629 23.9026 3.77033 23.9578C3.81437 24.013 3.8691 24.0588 3.93124 24.0924C3.99338 24.126 4.06165 24.1466 4.13197 24.1532C4.2023 24.1598 4.27322 24.1521 4.34051 24.1306C4.34051 24.1306 9.59716 22.6677 10.8425 22.29C10.8797 22.2844 10.9161 22.2748 10.9512 22.2613C11.3033 22.1263 11.6794 22.0501 12.075 22.0501C12.6516 22.0501 13.1875 22.2065 13.6531 22.4777C13.6713 22.488 13.6902 22.4973 13.7095 22.5054C13.7135 22.5073 13.7177 22.5096 13.7218 22.5115C17.0303 24.0735 23.7494 27.4376 23.7676 27.4467L23.7696 27.4488C23.7387 27.4323 23.7417 27.4342 23.8055 27.4754C23.8172 27.4831 23.8291 27.4903 23.8414 27.497C24.3378 27.7646 24.675 28.2734 24.675 28.8751C24.675 29.1899 24.5821 29.4781 24.4228 29.7251C23.9609 30.444 23.068 30.5959 22.2325 30.1937C22.2228 30.189 22.2129 30.1846 22.2028 30.1804L21.8449 30.0348C21.7807 30.0062 21.7113 29.9908 21.6409 29.9895C21.5706 29.9882 21.5007 30.0011 21.4354 30.0274C21.3701 30.0537 21.3107 30.0928 21.2609 30.1425C21.211 30.1921 21.1717 30.2513 21.1451 30.3165C21.1186 30.3817 21.1054 30.4515 21.1064 30.5219C21.1074 30.5922 21.1225 30.6617 21.1509 30.7261C21.1792 30.7905 21.2203 30.8485 21.2715 30.8968C21.3227 30.945 21.3832 30.9825 21.4491 31.0069L21.807 31.1525L21.7773 31.1392C22.8336 31.6477 24.1227 31.5335 24.9488 30.73L25.5199 31.1207C25.592 31.1699 25.6753 31.2004 25.7621 31.2093C25.8489 31.2183 25.9366 31.2054 26.0173 31.172L34.6316 27.6108L34.4132 27.175C34.473 27.2944 34.576 27.3865 34.7014 27.4326C34.8267 27.4788 34.9649 27.4754 35.0879 27.4231C35.2757 27.3438 35.4812 27.3001 35.7 27.3001C36.576 27.3001 37.275 27.9991 37.275 28.8751C37.275 29.473 36.9418 29.9802 36.4496 30.2501C36.3341 30.3134 36.2465 30.4178 36.2044 30.5426C36.1622 30.6674 36.1685 30.8035 36.222 30.9238L36.0251 30.4809L25.6748 35.9749C25.6922 35.9663 25.6769 35.9737 25.6532 35.9811C25.6287 35.9888 25.6047 35.9984 25.5815 36.0098C25.2984 36.1461 24.996 36.2251 24.675 36.2251C24.3658 36.2251 24.075 36.1539 23.8034 36.0292C23.7913 36.0237 23.779 36.0185 23.7665 36.0139C23.7271 35.9993 23.7204 35.9964 23.7481 36.0087L10.7041 30.4911C10.5865 30.4415 10.4549 30.4364 10.3339 30.4768L4.03392 32.5768C3.90175 32.6208 3.79249 32.7156 3.73019 32.8402C3.66788 32.9648 3.65763 33.109 3.70169 33.2412C3.74574 33.3734 3.8405 33.4826 3.96511 33.5449C4.08972 33.6072 4.23397 33.6175 4.36614 33.5734L10.4785 31.536L23.3256 36.9695C23.4048 37.0055 23.4216 37.0063 23.4025 36.9993C23.7875 37.1704 24.2174 37.2751 24.675 37.2751C25.1699 37.2751 25.631 37.1516 26.0367 36.9562C26.0684 36.945 26.0964 36.9378 26.1362 36.9183C26.1414 36.9156 26.1465 36.9129 26.1516 36.9101L36.95 31.1791C37.0366 31.1325 37.1083 31.0625 37.1571 30.9771C37.835 30.5047 38.325 29.765 38.325 28.8751C38.325 27.4316 37.1435 26.2501 35.7 26.2501C35.4128 26.2501 35.1468 26.3282 34.8869 26.4142H34.8859C34.8159 26.4138 34.7465 26.4273 34.6818 26.4541L25.8778 30.0933L25.4471 29.799C25.5665 29.4997 25.725 29.2159 25.725 28.8751C25.725 27.8777 25.1579 27.0132 24.3397 26.5721L24.3756 26.5936C24.3931 26.6049 24.3583 26.5721 24.2649 26.5218C24.2605 26.5194 24.256 26.517 24.2515 26.5146C24.2515 26.5146 17.4976 23.1317 14.1586 21.5559C14.1549 21.5541 14.1511 21.5524 14.1473 21.5507C14.0899 21.5252 14.0841 21.525 14.1125 21.5364C13.5095 21.1996 12.8152 21.0001 12.075 21.0001ZM15.225 27.8251C15.0858 27.8251 14.9523 27.8804 14.8538 27.9789C14.7553 28.0773 14.7 28.2109 14.7 28.3501C14.7 28.4893 14.7553 28.6229 14.8538 28.7213C14.9523 28.8198 15.0858 28.8751 15.225 28.8751C15.3643 28.8751 15.4978 28.8198 15.5963 28.7213C15.6947 28.6229 15.75 28.4893 15.75 28.3501C15.75 28.2109 15.6947 28.0773 15.5963 27.9789C15.4978 27.8804 15.3643 27.8251 15.225 27.8251ZM16.8 28.3501C16.6608 28.3501 16.5273 28.4054 16.4288 28.5039C16.3303 28.6023 16.275 28.7359 16.275 28.8751C16.275 29.0143 16.3303 29.1479 16.4288 29.2463C16.5273 29.3448 16.6608 29.4001 16.8 29.4001C16.9393 29.4001 17.0728 29.3448 17.1713 29.2463C17.2697 29.1479 17.325 29.0143 17.325 28.8751C17.325 28.7359 17.2697 28.6023 17.1713 28.5039C17.0728 28.4054 16.9393 28.3501 16.8 28.3501ZM18.375 28.8751C18.2358 28.8751 18.1023 28.9304 18.0038 29.0289C17.9053 29.1273 17.85 29.2609 17.85 29.4001C17.85 29.5393 17.9053 29.6729 18.0038 29.7713C18.1023 29.8698 18.2358 29.9251 18.375 29.9251C18.5143 29.9251 18.6478 29.8698 18.7463 29.7713C18.8447 29.6729 18.9 29.5393 18.9 29.4001C18.9 29.2609 18.8447 29.1273 18.7463 29.0289C18.6478 28.9304 18.5143 28.8751 18.375 28.8751ZM19.95 29.4001C19.8108 29.4001 19.6773 29.4554 19.5788 29.5539C19.4803 29.6523 19.425 29.7859 19.425 29.9251C19.425 30.0643 19.4803 30.1979 19.5788 30.2963C19.6773 30.3948 19.8108 30.4501 19.95 30.4501C20.0893 30.4501 20.2228 30.3948 20.3213 30.2963C20.4197 30.1979 20.475 30.0643 20.475 29.9251C20.475 29.7859 20.4197 29.6523 20.3213 29.5539C20.2228 29.4554 20.0893 29.4001 19.95 29.4001Z" fill="black"/>
</svg>
