<svg width="307" height="36" viewBox="0 0 387 36" fill="none" xmlns="http://www.w3.org/2000/svg">
                                        <g clip-path="url(#clip0_114_11506)">
                                        <path d="M209.383 13.4072C212.26 13.4072 217.265 15.3947 217.265 17.7935C217.265 20.2607 212.26 22.1797 209.383 22.1797H199.575L191.121 34.235C190.641 34.9135 189.75 35.3384 188.782 35.3384H184.055C183.163 35.3384 182.515 34.6393 182.759 33.9403L186.89 22.1797H178.234L174.6 26.1273C174.346 26.4014 173.947 26.5659 173.523 26.5659H169.993C169.341 26.5659 168.812 26.1342 168.812 25.5448C168.812 25.5173 168.828 25.4282 168.858 25.3392L171.504 17.7935L168.858 10.2478C168.828 10.1587 168.812 10.0696 168.812 9.98049C168.812 9.45277 169.341 9.021 169.993 9.021H173.523C173.947 9.021 174.346 9.18548 174.6 9.45962L178.234 13.4072H186.89L182.759 1.64665C182.515 0.945535 183.163 0.248535 184.055 0.248535H188.782C189.75 0.248535 190.641 0.67023 191.121 1.35332L199.575 13.4072H209.383V13.4072Z" fill="#111111"/>
                                        </g>
                                        <rect x="0.578125" y="16.697" width="22.8802" height="4.38623" rx="2.19312" fill="black"/>
                                        <rect x="222.648" y="16.697" width="22.8802" height="4.38623" rx="2.19312" fill="black"/>
                                        <rect x="113.633" y="16.697" width="22.8802" height="4.38623" rx="2.19312" fill="black"/>
                                        <rect x="57.1016" y="16.697" width="22.8802" height="4.38623" rx="2.19312" fill="black"/>
                                        <rect x="279.176" y="16.697" width="22.8802" height="4.38623" rx="2.19312" fill="black"/>
                                        <rect x="363.969" y="16.697" width="22.8802" height="4.38623" rx="2.19312" fill="black"/>
                                        <rect x="28.8398" y="16.697" width="22.8802" height="4.38623" rx="2.19312" fill="black"/>
                                        <rect x="250.914" y="16.697" width="22.8802" height="4.38623" rx="2.19312" fill="black"/>
                                        <rect x="335.703" y="16.697" width="22.8802" height="4.38623" rx="2.19312" fill="black"/>
                                        <rect x="141.895" y="16.697" width="22.8802" height="4.38623" rx="2.19312" fill="black"/>
                                        <rect x="85.3672" y="16.697" width="22.8802" height="4.38623" rx="2.19312" fill="black"/>
                                        <rect x="307.441" y="16.697" width="22.8802" height="4.38623" rx="2.19312" fill="black"/>
                                        <defs>
                                        <clipPath id="clip0_114_11506">
                                        <rect width="48.4522" height="35.0899" fill="white" transform="translate(168.812 0.248535)"/>
                                        </clipPath>
                                        </defs>
                                    </svg>