                        <svg width="15" height="15" viewBox="0 0 28 23" xmlns="http://www.w3.org/2000/svg">
                            <g transform="rotate(180, 14, 11.5)">
                                <g clip-path="url(#clip0_102_11795)">
                                <path
                                    d="M9.83104 19.5355V13.1389C9.83104 12.5967 9.6337 12.0667 9.26398 11.6159C8.89426 11.1651 8.36876 10.8137 7.75393 10.6062C7.13911 10.3987 6.46257 10.3444 5.80988 10.4502C5.15718 10.556 4.55764 10.8171 4.08707 11.2005C3.61651 11.5839 3.29605 12.0723 3.16622 12.6041C3.03639 13.1359 3.10302 13.6871 3.35769 14.188C3.61236 14.6889 4.04363 15.1171 4.59695 15.4183C5.15028 15.7195 5.80082 15.8803 6.4663 15.8803M18.8037 18.6217V8.56993C18.8037 8.02774 19.001 7.49772 19.3707 7.0469C19.7405 6.59608 20.266 6.2447 20.8808 6.03721C21.4956 5.82972 22.1722 5.77543 22.8248 5.88121C23.4775 5.98699 24.0771 6.24808 24.5477 6.63147C25.0182 7.01486 25.3387 7.50333 25.4685 8.03511C25.5983 8.56689 25.5317 9.11809 25.277 9.61902C25.0224 10.1199 24.5911 10.5481 24.0378 10.8493C23.4844 11.1505 22.8339 11.3113 22.1684 11.3113M14.3174 20.4493L14.3174 4.91474C14.3174 4.37254 14.12 3.84252 13.7503 3.3917C13.3806 2.94088 12.8551 2.58951 12.2403 2.38202C11.6254 2.17453 10.9489 2.12024 10.2962 2.22602C9.6435 2.3318 9.04396 2.59289 8.57339 2.97628C8.10283 3.35967 7.78237 3.84814 7.65254 4.37992C7.52271 4.9117 7.58934 5.4629 7.84401 5.96383C8.09868 6.46475 8.52994 6.8929 9.08327 7.19413C9.6366 7.49535 10.2871 7.65613 10.9526 7.65613"
                                    stroke="#FFFFFF"
                                    stroke-width="2.66667"
                                    stroke-linecap="round"
                                    stroke-linejoin="round"
                                />
                                </g>
                                <defs>
                                <clipPath id="clip0_102_11795">
                                    <rect
                                    width="21.9312"
                                    height="26.9179"
                                    fill="white"
                                    transform="matrix(0 -1 1 0 0.859375 22.2769)"
                                    />
                                </clipPath>
                                </defs>
                            </g>
                        </svg>