<svg width="36" height="36" viewBox="0 0 36 36" fill="none" xmlns="http://www.w3.org/2000/svg">
<path d="M17.9999 1.43994C12.7527 1.43994 8.07461 3.88944 5.03994 7.70338V2.87994C5.04126 2.78361 5.02324 2.688 4.98694 2.59876C4.95064 2.50953 4.8968 2.42848 4.82861 2.36042C4.76043 2.29237 4.67928 2.23869 4.58997 2.20256C4.50067 2.16643 4.40502 2.14859 4.30869 2.1501C4.11798 2.15308 3.93624 2.2316 3.80337 2.36843C3.67049 2.50527 3.59733 2.68923 3.59994 2.87994V10.0799H10.7999C10.8953 10.0813 10.9901 10.0637 11.0786 10.0281C11.1671 9.99251 11.2477 9.93969 11.3157 9.8727C11.3836 9.8057 11.4376 9.72588 11.4744 9.63785C11.5112 9.54983 11.5302 9.45536 11.5302 9.35994C11.5302 9.26452 11.5112 9.17006 11.4744 9.08203C11.4376 8.99401 11.3836 8.91418 11.3157 8.84719C11.2477 8.78019 11.1671 8.72737 11.0786 8.6918C10.9901 8.65622 10.8953 8.63859 10.7999 8.63994H6.134C8.9026 5.13405 13.1812 2.87994 17.9999 2.87994C26.3588 2.87994 33.1199 9.64108 33.1199 17.9999C33.1199 26.3588 26.3588 33.1199 17.9999 33.1199H17.9929H17.2729V33.7795C17.2696 33.8192 17.2696 33.8592 17.2729 33.899V34.5599H17.9929C17.9953 34.56 17.9976 34.56 17.9999 34.5599H18.7199V34.5417C27.5233 34.1633 34.5599 26.8954 34.5599 17.9999C34.5599 8.86281 27.1371 1.43994 17.9999 1.43994ZM17.2799 7.91994V10.1179C16.0329 10.2389 15.0202 10.6802 14.2678 11.4412C12.953 12.771 12.9592 14.5727 12.9599 14.6404C12.9599 17.7379 15.668 18.3402 17.8438 18.824C20.173 19.3402 21.5999 19.7517 21.5999 21.5999C21.5999 24.4295 18.1454 24.4792 17.9999 24.4799C14.5375 24.4799 14.4035 21.8895 14.3999 21.5943L13.6799 21.5999H12.9599C12.9599 22.9996 13.8844 25.5672 17.2799 25.8862V28.0799H18.7199V25.8735C20.5185 25.6532 23.0399 24.5887 23.0399 21.5999C23.0399 18.5025 20.3319 17.9002 18.156 17.4163C15.8268 16.9001 14.3999 16.4881 14.3999 14.6348C14.3999 14.6269 14.4041 13.8101 14.857 13.0274C15.4351 12.0274 16.493 11.5199 17.9999 11.5199C20.7395 11.5199 20.8735 14.1153 20.8799 14.4084L22.3199 14.3901C22.3027 13.012 21.5049 10.5028 18.7199 10.1306V7.91994H17.2799ZM1.43994 17.2799V17.9999V18.0084V18.7284H2.87994V18.0084V17.9999V17.2799H1.43994ZM2.95025 19.8885L1.5426 20.1937L1.69447 20.8968L1.69729 20.9109L1.84916 21.614L3.25682 21.3103L3.10494 20.6057L3.10213 20.5931L2.95025 19.8885ZM3.51697 22.4746L2.17963 23.009L2.44541 23.677L2.45104 23.691L2.71822 24.359L4.05557 23.826L3.78838 23.1567L3.78275 23.144L3.51697 22.4746ZM4.52947 24.9215L3.29619 25.6654L3.66885 26.2828L3.67588 26.294L4.04854 26.9099L5.28041 26.166L4.90916 25.5501L4.90213 25.5374L4.52947 24.9215ZM5.9526 27.1532L4.85572 28.0856L5.32119 28.634L5.33103 28.6453L5.7965 29.1937L6.89478 28.2613L6.42791 27.7129L6.41947 27.7017L5.9526 27.1532ZM7.73994 29.1051L6.80478 30.2006L7.35322 30.6674L7.36307 30.6773L7.9115 31.1442L8.84666 30.0487L8.29822 29.5818L8.28838 29.572L7.73994 29.1051ZM9.83525 30.7195L9.08853 31.9499L9.70447 32.324L9.71572 32.331L10.3317 32.7037L11.0784 31.4732L10.4624 31.0992L10.4512 31.0921L9.83525 30.7195ZM12.1753 31.9443L11.6395 33.2817L12.3074 33.5488L12.3201 33.5545L12.9881 33.8231L13.5238 32.4857L12.8559 32.2185L12.8432 32.2129L12.1753 31.9443ZM14.691 32.7431L14.3831 34.1493L15.0862 34.304L15.1003 34.3068L15.8034 34.4601L16.1113 33.0538L15.4082 32.8992L15.3942 32.8963L14.691 32.7431Z" fill="black"/>
</svg>
