<svg width="37" height="37" viewBox="0 0 37 37" fill="none" xmlns="http://www.w3.org/2000/svg">
<path d="M6.65994 0.739746C5.44299 0.739746 4.43994 1.74279 4.43994 2.95975V34.0397C4.43994 35.2567 5.44299 36.2597 6.65994 36.2597H30.3399C31.5569 36.2597 32.5599 35.2567 32.5599 34.0397V2.95975C32.5599 1.74279 31.5569 0.739746 30.3399 0.739746H6.65994ZM6.65994 2.21975H30.3399C30.7504 2.21975 31.0799 2.54928 31.0799 2.95975V34.0397C31.0799 34.4502 30.7504 34.7797 30.3399 34.7797H6.65994C6.24947 34.7797 5.91994 34.4502 5.91994 34.0397V2.95975C5.91994 2.54928 6.24947 2.21975 6.65994 2.21975ZM18.4999 6.65975C14.0253 6.65975 10.3599 10.3251 10.3599 14.7997C10.3599 19.2744 14.0253 22.9397 18.4999 22.9397C22.9746 22.9397 26.6399 19.2744 26.6399 14.7997C26.6399 10.3251 22.9746 6.65975 18.4999 6.65975ZM17.7599 8.371V14.0597H15.5862C15.6729 12.4237 16.014 10.9437 16.5343 9.89725C16.9072 9.14279 17.3379 8.63982 17.7599 8.371ZM19.2399 8.371C19.662 8.63982 20.0927 9.14279 20.4656 9.89725C20.9859 10.9437 21.327 12.4237 21.4137 14.0597H19.2399V8.371ZM15.4012 8.90287C15.3376 9.01561 15.274 9.13123 15.2162 9.24975C14.5687 10.5534 14.1698 12.2213 14.0831 14.0597H11.8862C12.1377 11.8282 13.4963 9.90881 15.4012 8.90287ZM21.5987 8.90287C23.5036 9.90881 24.8622 11.8282 25.1137 14.0597H22.9168C22.8301 12.2213 22.4312 10.5534 21.7837 9.24975C21.7259 9.13123 21.6623 9.01561 21.5987 8.90287ZM11.8862 15.5397H14.0831C14.1698 17.3782 14.5687 19.0461 15.2162 20.3497C15.274 20.4683 15.3376 20.5839 15.4012 20.6966C13.4963 19.6907 12.1377 17.7713 11.8862 15.5397ZM15.5862 15.5397H17.7599V21.2285C17.3379 20.9597 16.9072 20.4567 16.5343 19.7022C16.014 18.6558 15.6729 17.1758 15.5862 15.5397ZM19.2399 15.5397H21.4137C21.327 17.1758 20.9859 18.6558 20.4656 19.7022C20.0927 20.4567 19.662 20.9597 19.2399 21.2285V15.5397ZM22.9168 15.5397H25.1137C24.8622 17.7713 23.5036 19.6907 21.5987 20.6966C21.6623 20.5839 21.7259 20.4683 21.7837 20.3497C22.4312 19.0461 22.8301 17.3782 22.9168 15.5397ZM9.48119 28.1197C9.07361 28.1573 8.77299 28.5215 8.81057 28.9291C8.84814 29.3367 9.21236 29.6373 9.61994 29.5997H27.3799C27.6459 29.6026 27.8945 29.4639 28.0303 29.2326C28.1633 29.0014 28.1633 28.7181 28.0303 28.4869C27.8945 28.2556 27.6459 28.1169 27.3799 28.1197H9.61994C9.59682 28.1197 9.57369 28.1197 9.55057 28.1197C9.52744 28.1197 9.50432 28.1197 9.48119 28.1197Z" fill="black"/>
</svg>
