<svg width="34" height="34" viewBox="0 0 34 34" fill="none" xmlns="http://www.w3.org/2000/svg">
<path d="M14.28 1.35986V3.39986H15.64V4.14627C8.39819 4.83292 2.71997 10.9403 2.71997 18.3599C2.71997 26.2384 9.1214 32.6399 17 32.6399C24.8785 32.6399 31.28 26.2384 31.28 18.3599C31.28 10.9403 25.6018 4.83292 18.36 4.14627V3.39986H19.72V1.35986H14.28ZM27.3607 3.49947L25.9967 4.86346L29.135 8.00182L30.499 6.63783L27.3607 3.49947ZM17 5.43986C24.1435 5.43986 29.92 11.2163 29.92 18.3599C29.92 25.5034 24.1435 31.2799 17 31.2799C9.8564 31.2799 4.07997 25.5034 4.07997 18.3599C4.07997 11.2163 9.8564 5.43986 17 5.43986ZM10.1933 10.8732C10.0581 10.8733 9.92586 10.9136 9.81366 10.9892C9.70145 11.0647 9.61433 11.1721 9.56342 11.2974C9.51252 11.4227 9.50015 11.5604 9.5279 11.6928C9.55565 11.8252 9.62225 11.9463 9.71919 12.0406L15.6878 18.0092C15.6566 18.1235 15.6406 18.2414 15.64 18.3599C15.64 18.7206 15.7833 19.0665 16.0383 19.3215C16.2934 19.5766 16.6393 19.7199 17 19.7199C17.1188 19.7198 17.2371 19.7042 17.3519 19.6734L18.5592 20.8806C18.6218 20.9459 18.6969 20.998 18.7799 21.0339C18.863 21.0698 18.9524 21.0888 19.0428 21.0897C19.1333 21.0906 19.223 21.0735 19.3068 21.0393C19.3906 21.0051 19.4667 20.9545 19.5306 20.8905C19.5946 20.8266 19.6452 20.7505 19.6794 20.6667C19.7136 20.5829 19.7307 20.4932 19.7298 20.4027C19.7289 20.3123 19.7099 20.2229 19.674 20.1398C19.6381 20.0568 19.586 19.9817 19.5208 19.9191L18.3122 18.7105C18.3433 18.5962 18.3594 18.4783 18.36 18.3599C18.36 17.9992 18.2167 17.6532 17.9616 17.3982C17.7066 17.1431 17.3607 16.9999 17 16.9999C16.8811 16.9999 16.7628 17.0155 16.648 17.0463L10.6808 11.0791C10.6174 11.0139 10.5416 10.9622 10.4579 10.9268C10.3742 10.8914 10.2842 10.8732 10.1933 10.8732Z" fill="black"/>
</svg>
