<svg width="30" height="30" viewBox="0 0 30 30" fill="none" xmlns="http://www.w3.org/2000/svg">
<path d="M15 1.2002C7.38567 1.2002 1.19995 7.38592 1.19995 15.0002C1.19995 22.6145 7.38567 28.8002 15 28.8002C22.6142 28.8002 28.8 22.6145 28.8 15.0002C28.8 7.38592 22.6142 1.2002 15 1.2002ZM15 2.4002C21.9657 2.4002 27.6 8.03447 27.6 15.0002C27.6 21.9659 21.9657 27.6002 15 27.6002C8.03423 27.6002 2.39995 21.9659 2.39995 15.0002C2.39995 8.03447 8.03423 2.4002 15 2.4002ZM19.7941 9.59199C19.6358 9.59573 19.4855 9.66186 19.3757 9.77598L15 14.1518L10.6242 9.77598C10.5683 9.7185 10.5014 9.67281 10.4275 9.64161C10.3537 9.61042 10.2743 9.59434 10.1941 9.59434C10.0747 9.59437 9.95809 9.62999 9.85909 9.69666C9.76008 9.76333 9.68321 9.85801 9.63829 9.9686C9.59338 10.0792 9.58247 10.2007 9.60695 10.3175C9.63143 10.4343 9.6902 10.5412 9.77573 10.6244L14.1515 15.0002L9.77573 19.376C9.71815 19.4313 9.67217 19.4975 9.6405 19.5708C9.60883 19.644 9.5921 19.7229 9.59129 19.8027C9.59047 19.8825 9.6056 19.9617 9.63577 20.0356C9.66595 20.1095 9.71056 20.1767 9.76701 20.2331C9.82346 20.2896 9.8906 20.3342 9.96451 20.3644C10.0384 20.3946 10.1176 20.4097 10.1974 20.4089C10.2772 20.408 10.3561 20.3913 10.4294 20.3596C10.5027 20.328 10.5689 20.282 10.6242 20.2244L15 15.8486L19.3757 20.2244C19.431 20.282 19.4972 20.328 19.5705 20.3596C19.6438 20.3913 19.7227 20.408 19.8025 20.4089C19.8823 20.4097 19.9615 20.3946 20.0354 20.3644C20.1093 20.3342 20.1764 20.2896 20.2329 20.2331C20.2893 20.1767 20.334 20.1095 20.3641 20.0356C20.3943 19.9617 20.4094 19.8825 20.4086 19.8027C20.4078 19.7229 20.3911 19.644 20.3594 19.5708C20.3277 19.4975 20.2818 19.4313 20.2242 19.376L15.8484 15.0002L20.2242 10.6244C20.3113 10.5406 20.3711 10.4325 20.3957 10.3141C20.4204 10.1958 20.4087 10.0727 20.3622 9.96114C20.3157 9.84955 20.2366 9.7546 20.1352 9.68873C20.0338 9.62286 19.9149 9.58914 19.7941 9.59199Z" fill="black"/>
</svg>
