<svg width="30" height="30" viewBox="0 0 30 30" fill="none" xmlns="http://www.w3.org/2000/svg">
<path d="M15 1.2002C7.39015 1.2002 1.19995 7.391 1.19995 15.0002C1.19995 22.6094 7.39015 28.8002 15 28.8002C15.6384 28.8002 16.2652 28.7529 16.8808 28.6689C16.972 28.1703 17.1303 27.7424 17.3343 27.374C16.5771 27.5168 15.7986 27.6002 15 27.6002C8.05255 27.6002 2.39995 21.9482 2.39995 15.0002C2.39995 8.0522 8.05255 2.4002 15 2.4002C21.9474 2.4002 27.6 8.0522 27.6 15.0002C27.6 15.5342 27.5558 16.0568 27.491 16.574C27.7046 16.7564 27.903 16.9547 28.0722 17.1869C28.236 17.4119 28.3719 17.6595 28.4859 17.9205C28.6899 16.9785 28.8 16.0022 28.8 15.0002C28.8 7.391 22.6098 1.2002 15 1.2002ZM14.9906 4.19199C14.8317 4.19448 14.6802 4.25991 14.5695 4.37394C14.4587 4.48797 14.3978 4.64127 14.4 4.8002V13.3057C14.1626 13.39 13.9455 13.5232 13.7629 13.6967C13.5802 13.8702 13.436 14.0801 13.3396 14.3128C13.2431 14.5456 13.1966 14.7959 13.2031 15.0478C13.2095 15.2996 13.2687 15.5473 13.3769 15.7748L9.77573 19.376C9.71815 19.4313 9.67217 19.4975 9.6405 19.5708C9.60883 19.644 9.5921 19.7229 9.59129 19.8027C9.59047 19.8825 9.6056 19.9617 9.63577 20.0356C9.66595 20.1095 9.71056 20.1767 9.76701 20.2331C9.82346 20.2896 9.8906 20.3342 9.96451 20.3644C10.0384 20.3945 10.1176 20.4097 10.1974 20.4089C10.2772 20.408 10.3561 20.3913 10.4294 20.3596C10.5027 20.328 10.5689 20.282 10.6242 20.2244L14.2242 16.6244C14.4664 16.7401 14.7315 16.8002 15 16.8002C15.4245 16.8001 15.8353 16.6499 16.1598 16.3762C16.4844 16.1026 16.7017 15.723 16.7735 15.3046C16.8453 14.8862 16.7669 14.4559 16.5522 14.0897C16.3374 13.7235 16.0002 13.4449 15.6 13.3033V4.8002C15.6011 4.71992 15.586 4.64024 15.5558 4.56588C15.5255 4.49151 15.4807 4.42398 15.4238 4.36726C15.367 4.31055 15.2994 4.26582 15.225 4.23571C15.1506 4.2056 15.0708 4.19074 14.9906 4.19199ZM24.3164 16.2014C22.5976 16.2014 21.3597 16.7702 20.7445 17.7822C20.1808 18.7095 20.2117 19.8764 20.5183 21.0846C20.3758 21.3107 20.2804 21.5823 20.3214 21.9365C20.3687 22.3451 20.4749 22.6605 20.6589 22.9057C20.7189 22.9856 20.8177 22.9837 20.8933 23.0428C20.9694 23.4725 21.1445 23.8512 21.355 24.1385C21.4866 24.318 21.6226 24.4694 21.7488 24.592C21.7699 24.6125 21.7926 24.6226 21.8121 24.6412V25.4756C21.7456 25.6292 21.6236 25.764 21.3339 25.9232C21.0238 26.0937 20.5827 26.2587 20.1164 26.4799C19.65 26.7011 19.1483 26.9862 18.7406 27.4502C18.3329 27.9141 18.0476 28.5593 18.0011 29.3662C17.9965 29.4477 18.0086 29.5293 18.0366 29.606C18.0646 29.6827 18.1079 29.7528 18.164 29.8122C18.2201 29.8715 18.2876 29.9188 18.3626 29.9511C18.4375 29.9835 18.5183 30.0002 18.6 30.0002H29.4C29.4817 30.0002 29.5626 29.9834 29.6376 29.951C29.7127 29.9186 29.7803 29.8712 29.8364 29.8118C29.8924 29.7523 29.9358 29.682 29.9637 29.6052C29.9916 29.5284 30.0036 29.4466 29.9988 29.365C29.9518 28.5583 29.6661 27.914 29.2582 27.4502C28.8502 26.9864 28.3488 26.7011 27.8824 26.4799C27.4159 26.2586 26.975 26.0937 26.6648 25.9232C26.3758 25.7644 26.2533 25.6307 26.1867 25.4779V24.6353C26.2067 24.6154 26.2316 24.6035 26.2535 24.5814C26.3775 24.4565 26.5117 24.3026 26.6402 24.1232C26.8314 23.8563 26.9382 23.4745 27.0246 23.0932C27.1258 23.0256 27.2486 23.0201 27.3257 22.9174C27.5099 22.672 27.6164 22.3557 27.6632 21.9471C27.6936 21.6809 27.6671 21.4338 27.5753 21.2123C27.5582 21.171 27.4922 21.1523 27.4699 21.1115C27.6935 20.2576 27.762 19.3306 27.4324 18.4971C27.1045 17.6681 26.2651 17.0823 25.1566 16.9408L24.8039 16.4498C24.7481 16.3727 24.6748 16.31 24.5901 16.2668C24.5053 16.2236 24.4115 16.2012 24.3164 16.2014ZM24.0421 17.4471L24.2835 17.7811C24.3391 17.8582 24.4121 17.9211 24.4966 17.9645C24.5812 18.0078 24.6748 18.0305 24.7699 18.0307C25.7405 18.0307 26.0959 18.3794 26.3167 18.9377C26.5376 19.496 26.505 20.3377 26.271 21.0646C26.234 21.1804 26.233 21.3047 26.2682 21.421C26.3033 21.5374 26.373 21.6403 26.4679 21.7162C26.4716 21.7354 26.4789 21.7447 26.4714 21.81C26.4431 22.0568 26.39 22.1437 26.3742 22.1686C26.2532 22.2073 26.1476 22.2834 26.0726 22.386C25.9976 22.4885 25.9572 22.6122 25.957 22.7393C25.957 22.8842 25.8391 23.1804 25.664 23.4248C25.5765 23.547 25.4807 23.6568 25.4027 23.7353C25.3247 23.8139 25.233 23.8708 25.2984 23.835C25.204 23.8867 25.1253 23.9628 25.0705 24.0554C25.0156 24.1479 24.9867 24.2535 24.9867 24.3611V25.6455C24.9864 25.7141 24.9979 25.7823 25.0207 25.8471C25.2172 26.3985 25.6594 26.7406 26.0871 26.9756C26.5147 27.2106 26.9652 27.374 27.3679 27.565C27.7707 27.7561 28.1148 27.967 28.357 28.2424C28.4702 28.3711 28.4899 28.6258 28.5644 28.8002H19.4343C19.5088 28.6256 19.5285 28.3712 19.6417 28.2424C19.8836 27.9671 20.2282 27.756 20.6308 27.565C21.0334 27.3741 21.484 27.2095 21.9117 26.9744C22.3393 26.7393 22.7805 26.3987 22.9769 25.8471C23.0001 25.7824 23.012 25.7142 23.0121 25.6455V24.36C23.012 24.2519 22.9828 24.1459 22.9276 24.0531C22.8723 23.9603 22.793 23.8841 22.698 23.8326C22.7529 23.8624 22.664 23.8081 22.5855 23.7318C22.507 23.6556 22.4106 23.5491 22.323 23.4295C22.1478 23.1904 22.0277 22.902 22.0277 22.7275C22.0276 22.6006 21.9873 22.477 21.9125 22.3745C21.8378 22.272 21.7324 22.1958 21.6117 22.1568C21.5957 22.1319 21.5418 22.0454 21.5132 21.7982C21.507 21.7448 21.5145 21.7173 21.5226 21.6998C21.614 21.6249 21.6812 21.5246 21.7158 21.4116C21.7504 21.2986 21.7509 21.1779 21.7171 21.0646C21.3769 19.9243 21.4118 18.9947 21.7699 18.4057C22.099 17.8644 22.7996 17.5075 24.0421 17.4471Z" fill="black"/>
</svg>
